<?xml version="1.0" encoding="UTF-8" standalone="no"?><svg xmlns="http://www.w3.org/2000/svg" xmlns:xlink="http://www.w3.org/1999/xlink" clip-rule="evenodd" stroke-miterlimit="10" viewBox="0 0 1024 768"><desc>SVG generated by Keynote</desc><defs></defs><g transform="matrix(1.00, 0.00, -0.00, -1.00, 0.0, 768.0)"><path d="M 0.0 768.0 L 1024.0 768.0 L 1024.0 0.0 L 0.0 0.0 Z M 0.0 768.0 " fill="#FEFFFF"></path><image xlink:href="../../3BC8020D-1F36-4539-B9AC-02F2FA89CB7E/assets/7F4F24FAB2BE4AECA15887D26A47A79B.png" width="1830.00" height="964.00" transform="matrix(0.08, 0.00, -0.00, -0.08, 825.0, 118.0)"></image><text xml:space="preserve" font-family="Monaco,Monaco" font-size="72.0" fill="#081E2B" transform="matrix(1.00, 0.00, -0.00, -1.00, 360.8, 357.0)">O</text><text xml:space="preserve" font-family="Monaco,Monaco" font-size="72.0" fill="#081E2B" transform="matrix(1.00, 0.00, -0.00, -1.00, 404.0, 357.0)">N</text><text xml:space="preserve" font-family="Monaco,Monaco" font-size="72.0" fill="#081E2B" transform="matrix(1.00, 0.00, -0.00, -1.00, 447.2, 357.0)">B</text><text xml:space="preserve" font-family="Monaco,Monaco" font-size="72.0" fill="#081E2B" transform="matrix(1.00, 0.00, -0.00, -1.00, 490.4, 357.0)">U</text><text xml:space="preserve" font-family="Monaco,Monaco" font-size="72.0" fill="#081E2B" transform="matrix(1.00, 0.00, -0.00, -1.00, 533.6, 357.0)">I</text><text xml:space="preserve" font-family="Monaco,Monaco" font-size="72.0" fill="#081E2B" transform="matrix(1.00, 0.00, -0.00, -1.00, 576.8, 357.0)">L</text><text xml:space="preserve" font-family="Monaco,Monaco" font-size="72.0" fill="#081E2B" transform="matrix(1.00, 0.00, -0.00, -1.00, 620.1, 357.0)">D</text></g></svg>