<?xml version="1.0" encoding="UTF-8" standalone="no"?><svg xmlns="http://www.w3.org/2000/svg" xmlns:xlink="http://www.w3.org/1999/xlink" clip-rule="evenodd" stroke-miterlimit="10" viewBox="0 0 1024 768"><desc>SVG generated by Keynote</desc><defs></defs><g transform="matrix(1.00, 0.00, -0.00, -1.00, 0.0, 768.0)"><path d="M 0.0 768.0 L 1024.0 768.0 L 1024.0 0.0 L 0.0 0.0 Z M 0.0 768.0 " fill="#FEFFFF"></path><image xlink:href="../../3BC8020D-1F36-4539-B9AC-02F2FA89CB7E/assets/7F4F24FAB2BE4AECA15887D26A47A79B.png" width="1830.00" height="964.00" transform="matrix(0.08, 0.00, -0.00, -0.08, 825.0, 118.0)"></image><text xml:space="preserve" font-family="Monaco,Monaco" font-size="32.0" fill="#081E2B" transform="matrix(1.00, 0.00, -0.00, -1.00, 60.7, 371.7)">d</text><text xml:space="preserve" font-family="Monaco,Monaco" font-size="32.0" fill="#081E2B" transform="matrix(1.00, 0.00, -0.00, -1.00, 79.9, 371.7)">o</text><text xml:space="preserve" font-family="Monaco,Monaco" font-size="32.0" fill="#081E2B" transform="matrix(1.00, 0.00, -0.00, -1.00, 99.1, 371.7)">c</text><text xml:space="preserve" font-family="Monaco,Monaco" font-size="32.0" fill="#081E2B" transform="matrix(1.00, 0.00, -0.00, -1.00, 118.3, 371.7)">k</text><text xml:space="preserve" font-family="Monaco,Monaco" font-size="32.0" fill="#081E2B" transform="matrix(1.00, 0.00, -0.00, -1.00, 137.6, 371.7)">e</text><text xml:space="preserve" font-family="Monaco,Monaco" font-size="32.0" fill="#081E2B" transform="matrix(1.00, 0.00, -0.00, -1.00, 156.8, 371.7)">r</text><text xml:space="preserve" font-family="Monaco,Monaco" font-size="32.0" fill="#081E2B" transform="matrix(1.00, 0.00, -0.00, -1.00, 176.0, 371.7)"> </text><text xml:space="preserve" font-family="Monaco,Monaco" font-size="32.0" fill="#081E2B" transform="matrix(1.00, 0.00, -0.00, -1.00, 195.2, 371.7)">r</text><text xml:space="preserve" font-family="Monaco,Monaco" font-size="32.0" fill="#081E2B" transform="matrix(1.00, 0.00, -0.00, -1.00, 214.4, 371.7)">u</text><text xml:space="preserve" font-family="Monaco,Monaco" font-size="32.0" fill="#081E2B" transform="matrix(1.00, 0.00, -0.00, -1.00, 233.6, 371.7)">n</text><text xml:space="preserve" font-family="Monaco,Monaco" font-size="32.0" fill="#081E2B" transform="matrix(1.00, 0.00, -0.00, -1.00, 252.8, 371.7)"> </text><text xml:space="preserve" font-family="Monaco,Monaco" font-size="32.0" fill="#081E2B" transform="matrix(1.00, 0.00, -0.00, -1.00, 272.0, 371.7)">-</text><text xml:space="preserve" font-family="Monaco,Monaco" font-size="32.0" fill="#081E2B" transform="matrix(1.00, 0.00, -0.00, -1.00, 291.2, 371.7)">i</text><text xml:space="preserve" font-family="Monaco,Monaco" font-size="32.0" fill="#081E2B" transform="matrix(1.00, 0.00, -0.00, -1.00, 310.4, 371.7)"> </text><text xml:space="preserve" font-family="Monaco,Monaco" font-size="32.0" fill="#081E2B" transform="matrix(1.00, 0.00, -0.00, -1.00, 329.6, 371.7)">-</text><text xml:space="preserve" font-family="Monaco,Monaco" font-size="32.0" fill="#081E2B" transform="matrix(1.00, 0.00, -0.00, -1.00, 348.8, 371.7)">t</text><text xml:space="preserve" font-family="Monaco,Monaco" font-size="32.0" fill="#081E2B" transform="matrix(1.00, 0.00, -0.00, -1.00, 368.0, 371.7)"> </text><text xml:space="preserve" font-family="Monaco,Monaco" font-size="32.0" fill="#081E2B" transform="matrix(1.00, 0.00, -0.00, -1.00, 387.2, 371.7)">-</text><text xml:space="preserve" font-family="Monaco,Monaco" font-size="32.0" fill="#081E2B" transform="matrix(1.00, 0.00, -0.00, -1.00, 406.4, 371.7)">-</text><text xml:space="preserve" font-family="Monaco,Monaco" font-size="32.0" fill="#081E2B" transform="matrix(1.00, 0.00, -0.00, -1.00, 425.6, 371.7)">r</text><text xml:space="preserve" font-family="Monaco,Monaco" font-size="32.0" fill="#081E2B" transform="matrix(1.00, 0.00, -0.00, -1.00, 444.9, 371.7)">m</text><text xml:space="preserve" font-family="Monaco,Monaco" font-size="32.0" fill="#081E2B" transform="matrix(1.00, 0.00, -0.00, -1.00, 464.1, 371.7)"> </text><text xml:space="preserve" font-family="Monaco,Monaco" font-size="32.0" fill="#081E2B" transform="matrix(1.00, 0.00, -0.00, -1.00, 483.3, 371.7)">-</text><text xml:space="preserve" font-family="Monaco,Monaco" font-size="32.0" fill="#081E2B" transform="matrix(1.00, 0.00, -0.00, -1.00, 502.5, 371.7)">-</text><text xml:space="preserve" font-family="Monaco,Monaco" font-size="32.0" fill="#081E2B" transform="matrix(1.00, 0.00, -0.00, -1.00, 521.7, 371.7)">e</text><text xml:space="preserve" font-family="Monaco,Monaco" font-size="32.0" fill="#081E2B" transform="matrix(1.00, 0.00, -0.00, -1.00, 540.9, 371.7)">n</text><text xml:space="preserve" font-family="Monaco,Monaco" font-size="32.0" fill="#081E2B" transform="matrix(1.00, 0.00, -0.00, -1.00, 560.1, 371.7)">t</text><text xml:space="preserve" font-family="Monaco,Monaco" font-size="32.0" fill="#081E2B" transform="matrix(1.00, 0.00, -0.00, -1.00, 579.3, 371.7)">r</text><text xml:space="preserve" font-family="Monaco,Monaco" font-size="32.0" fill="#081E2B" transform="matrix(1.00, 0.00, -0.00, -1.00, 598.5, 371.7)">y</text><text xml:space="preserve" font-family="Monaco,Monaco" font-size="32.0" fill="#081E2B" transform="matrix(1.00, 0.00, -0.00, -1.00, 617.7, 371.7)">p</text><text xml:space="preserve" font-family="Monaco,Monaco" font-size="32.0" fill="#081E2B" transform="matrix(1.00, 0.00, -0.00, -1.00, 636.9, 371.7)">o</text><text xml:space="preserve" font-family="Monaco,Monaco" font-size="32.0" fill="#081E2B" transform="matrix(1.00, 0.00, -0.00, -1.00, 656.1, 371.7)">i</text><text xml:space="preserve" font-family="Monaco,Monaco" font-size="32.0" fill="#081E2B" transform="matrix(1.00, 0.00, -0.00, -1.00, 675.3, 371.7)">n</text><text xml:space="preserve" font-family="Monaco,Monaco" font-size="32.0" fill="#081E2B" transform="matrix(1.00, 0.00, -0.00, -1.00, 694.5, 371.7)">t</text><text xml:space="preserve" font-family="Monaco,Monaco" font-size="32.0" fill="#081E2B" transform="matrix(1.00, 0.00, -0.00, -1.00, 713.7, 371.7)"> </text><text xml:space="preserve" font-family="Monaco,Monaco" font-size="32.0" fill="#081E2B" transform="matrix(1.00, 0.00, -0.00, -1.00, 732.9, 371.7)">b</text><text xml:space="preserve" font-family="Monaco,Monaco" font-size="32.0" fill="#081E2B" transform="matrix(1.00, 0.00, -0.00, -1.00, 752.2, 371.7)">a</text><text xml:space="preserve" font-family="Monaco,Monaco" font-size="32.0" fill="#081E2B" transform="matrix(1.00, 0.00, -0.00, -1.00, 771.4, 371.7)">s</text><text xml:space="preserve" font-family="Monaco,Monaco" font-size="32.0" fill="#081E2B" transform="matrix(1.00, 0.00, -0.00, -1.00, 790.6, 371.7)">h</text><text xml:space="preserve" font-family="Monaco,Monaco" font-size="32.0" fill="#081E2B" transform="matrix(1.00, 0.00, -0.00, -1.00, 809.8, 371.7)"> </text><text xml:space="preserve" font-family="Monaco,Monaco" font-size="32.0" fill="#081E2B" transform="matrix(1.00, 0.00, -0.00, -1.00, 829.0, 371.7)">&lt;</text><text xml:space="preserve" font-family="Monaco,Monaco" font-size="32.0" fill="#081E2B" transform="matrix(1.00, 0.00, -0.00, -1.00, 848.2, 371.7)">i</text><text xml:space="preserve" font-family="Monaco,Monaco" font-size="32.0" fill="#081E2B" transform="matrix(1.00, 0.00, -0.00, -1.00, 867.4, 371.7)">m</text><text xml:space="preserve" font-family="Monaco,Monaco" font-size="32.0" fill="#081E2B" transform="matrix(1.00, 0.00, -0.00, -1.00, 886.6, 371.7)">a</text><text xml:space="preserve" font-family="Monaco,Monaco" font-size="32.0" fill="#081E2B" transform="matrix(1.00, 0.00, -0.00, -1.00, 905.8, 371.7)">g</text><text xml:space="preserve" font-family="Monaco,Monaco" font-size="32.0" fill="#081E2B" transform="matrix(1.00, 0.00, -0.00, -1.00, 925.0, 371.7)">e</text><text xml:space="preserve" font-family="Monaco,Monaco" font-size="32.0" fill="#081E2B" transform="matrix(1.00, 0.00, -0.00, -1.00, 944.2, 371.7)">&gt;</text></g></svg>