<?xml version="1.0" encoding="UTF-8" standalone="no"?><svg xmlns="http://www.w3.org/2000/svg" xmlns:xlink="http://www.w3.org/1999/xlink" clip-rule="evenodd" stroke-miterlimit="10" viewBox="0 0 1024 768"><desc>SVG generated by Keynote</desc><defs></defs><g transform="matrix(1.00, 0.00, -0.00, -1.00, 0.0, 768.0)"><path d="M 0.0 768.0 L 1024.0 768.0 L 1024.0 0.0 L 0.0 0.0 Z M 0.0 768.0 " fill="#FEFFFF"></path><image xlink:href="../../3BC8020D-1F36-4539-B9AC-02F2FA89CB7E/assets/7F4F24FAB2BE4AECA15887D26A47A79B.png" width="1830.00" height="964.00" transform="matrix(0.08, 0.00, -0.00, -0.08, 825.0, 118.0)"></image><image xlink:href="../../C6FEA4A2-C360-46BE-813E-F6FF93D82E2F/assets/D466FD7BD2D9AF8401E2C24B651FCAC8.png" width="206.00" height="106.00" transform="matrix(1.00, 0.00, -0.00, -1.00, 297.0, 435.0)" opacity="0.50"></image><g><clipPath id="clip0x60800eeadf80"><path d="M 300.0 434.0 L 500.0 434.0 L 500.0 334.0 L 300.0 334.0 Z M 300.0 434.0 "></path></clipPath><g clip-path="url(#clip0x60800eeadf80)"><image xlink:href="../../97F7E3AB-5357-42E0-A752-40D72FAE329A/assets/C3C0FC898C94653CAF8AD846D6CCD108.png" width="600.00" height="600.00" transform="matrix(0.50, 0.00, -0.00, -0.50, 300.0, 434.0)"></image></g></g><g><clipPath id="clip0x600009ab72e0"><path d="M 298.0 334.0 L 502.0 334.0 L 502.0 434.0 L 298.0 434.0 Z M 298.0 334.0 "></path></clipPath><g clip-path="url(#clip0x600009ab72e0)"><text xml:space="preserve" font-family="Helvetica-Light,Helvetica" font-size="24.0" fill="#FEFFFE" transform="matrix(1.00, 0.00, -0.00, -1.00, 346.6, 374.5)">B</text><text xml:space="preserve" font-family="Helvetica-Light,Helvetica" font-size="24.0" fill="#FEFFFE" transform="matrix(1.00, 0.00, -0.00, -1.00, 362.7, 374.5)">l</text><text xml:space="preserve" font-family="Helvetica-Light,Helvetica" font-size="24.0" fill="#FEFFFE" transform="matrix(1.00, 0.00, -0.00, -1.00, 368.0, 374.5)">u</text><text xml:space="preserve" font-family="Helvetica-Light,Helvetica" font-size="24.0" fill="#FEFFFE" transform="matrix(1.00, 0.00, -0.00, -1.00, 381.3, 374.5)">e</text><text xml:space="preserve" font-family="Helvetica-Light,Helvetica" font-size="24.0" fill="#FEFFFE" transform="matrix(1.00, 0.00, -0.00, -1.00, 394.7, 374.5)"> </text><text xml:space="preserve" font-family="Helvetica-Light,Helvetica" font-size="24.0" fill="#FEFFFE" transform="matrix(1.00, 0.00, -0.00, -1.00, 401.3, 374.5)">S</text><text xml:space="preserve" font-family="Helvetica-Light,Helvetica" font-size="24.0" fill="#FEFFFE" transform="matrix(1.00, 0.00, -0.00, -1.00, 416.0, 374.5)">l</text><text xml:space="preserve" font-family="Helvetica-Light,Helvetica" font-size="24.0" fill="#FEFFFE" transform="matrix(1.00, 0.00, -0.00, -1.00, 421.3, 374.5)">i</text><text xml:space="preserve" font-family="Helvetica-Light,Helvetica" font-size="24.0" fill="#FEFFFE" transform="matrix(1.00, 0.00, -0.00, -1.00, 426.7, 374.5)">c</text><text xml:space="preserve" font-family="Helvetica-Light,Helvetica" font-size="24.0" fill="#FEFFFE" transform="matrix(1.00, 0.00, -0.00, -1.00, 440.0, 374.5)">e</text></g></g><image xlink:href="../../C6FEA4A2-C360-46BE-813E-F6FF93D82E2F/assets/D466FD7BD2D9AF8401E2C24B651FCAC8.png" width="206.00" height="106.00" transform="matrix(1.00, 0.00, -0.00, -1.00, 297.0, 305.0)" opacity="0.50"></image><g><clipPath id="clip0x60800eead980"><path d="M 300.0 304.0 L 500.0 304.0 L 500.0 204.0 L 300.0 204.0 Z M 300.0 304.0 "></path></clipPath><g clip-path="url(#clip0x60800eead980)"><image xlink:href="../../97F7E3AB-5357-42E0-A752-40D72FAE329A/assets/C3C0FC898C94653CAF8AD846D6CCD108.png" width="600.00" height="600.00" transform="matrix(0.50, 0.00, -0.00, -0.50, 300.0, 304.0)"></image></g></g><g><clipPath id="clip0x60800eeae160"><path d="M 298.0 204.0 L 502.0 204.0 L 502.0 304.0 L 298.0 304.0 Z M 298.0 204.0 "></path></clipPath><g clip-path="url(#clip0x60800eeae160)"><text xml:space="preserve" font-family="Helvetica-Light,Helvetica" font-size="24.0" fill="#FEFFFE" transform="matrix(1.00, 0.00, -0.00, -1.00, 346.6, 244.5)">B</text><text xml:space="preserve" font-family="Helvetica-Light,Helvetica" font-size="24.0" fill="#FEFFFE" transform="matrix(1.00, 0.00, -0.00, -1.00, 362.7, 244.5)">l</text><text xml:space="preserve" font-family="Helvetica-Light,Helvetica" font-size="24.0" fill="#FEFFFE" transform="matrix(1.00, 0.00, -0.00, -1.00, 368.0, 244.5)">u</text><text xml:space="preserve" font-family="Helvetica-Light,Helvetica" font-size="24.0" fill="#FEFFFE" transform="matrix(1.00, 0.00, -0.00, -1.00, 381.3, 244.5)">e</text><text xml:space="preserve" font-family="Helvetica-Light,Helvetica" font-size="24.0" fill="#FEFFFE" transform="matrix(1.00, 0.00, -0.00, -1.00, 394.7, 244.5)"> </text><text xml:space="preserve" font-family="Helvetica-Light,Helvetica" font-size="24.0" fill="#FEFFFE" transform="matrix(1.00, 0.00, -0.00, -1.00, 401.3, 244.5)">S</text><text xml:space="preserve" font-family="Helvetica-Light,Helvetica" font-size="24.0" fill="#FEFFFE" transform="matrix(1.00, 0.00, -0.00, -1.00, 416.0, 244.5)">l</text><text xml:space="preserve" font-family="Helvetica-Light,Helvetica" font-size="24.0" fill="#FEFFFE" transform="matrix(1.00, 0.00, -0.00, -1.00, 421.3, 244.5)">i</text><text xml:space="preserve" font-family="Helvetica-Light,Helvetica" font-size="24.0" fill="#FEFFFE" transform="matrix(1.00, 0.00, -0.00, -1.00, 426.7, 244.5)">c</text><text xml:space="preserve" font-family="Helvetica-Light,Helvetica" font-size="24.0" fill="#FEFFFE" transform="matrix(1.00, 0.00, -0.00, -1.00, 440.0, 244.5)">e</text></g></g><image xlink:href="../../C6FEA4A2-C360-46BE-813E-F6FF93D82E2F/assets/4517C0667387A88FE6C1698F642E3356.png" width="208.00" height="108.00" transform="matrix(1.00, 0.00, -0.00, -1.00, 520.0, 438.0)" opacity="0.50"></image><g><clipPath id="clip0x600009ab8060"><path d="M 523.0 434.0 L 723.0 434.0 L 723.0 334.0 L 523.0 334.0 Z M 523.0 434.0 "></path></clipPath><g clip-path="url(#clip0x600009ab8060)"><image xlink:href="../../C6FEA4A2-C360-46BE-813E-F6FF93D82E2F/assets/57C63BC369DF2E161F93135AB5988468.png" width="600.00" height="600.00" transform="matrix(0.50, 0.00, -0.00, -0.50, 523.0, 434.0)"></image></g></g><g><clipPath id="clip0x60800eeae7c0"><path d="M 521.0 334.0 L 725.0 334.0 L 725.0 434.0 L 521.0 434.0 Z M 521.0 334.0 "></path></clipPath><g clip-path="url(#clip0x60800eeae7c0)"><text xml:space="preserve" font-family="Helvetica-Light,Helvetica" font-size="24.0" fill="#FEFFFE" transform="matrix(1.00, 0.00, -0.00, -1.00, 560.5, 374.5)">G</text><text xml:space="preserve" font-family="Helvetica-Light,Helvetica" font-size="24.0" fill="#FEFFFE" transform="matrix(1.00, 0.00, -0.00, -1.00, 579.2, 374.5)">r</text><text xml:space="preserve" font-family="Helvetica-Light,Helvetica" font-size="24.0" fill="#FEFFFE" transform="matrix(1.00, 0.00, -0.00, -1.00, 586.8, 374.5)">e</text><text xml:space="preserve" font-family="Helvetica-Light,Helvetica" font-size="24.0" fill="#FEFFFE" transform="matrix(1.00, 0.00, -0.00, -1.00, 600.1, 374.5)">e</text><text xml:space="preserve" font-family="Helvetica-Light,Helvetica" font-size="24.0" fill="#FEFFFE" transform="matrix(1.00, 0.00, -0.00, -1.00, 613.4, 374.5)">n</text><text xml:space="preserve" font-family="Helvetica-Light,Helvetica" font-size="24.0" fill="#FEFFFE" transform="matrix(1.00, 0.00, -0.00, -1.00, 626.8, 374.5)"> </text><text xml:space="preserve" font-family="Helvetica-Light,Helvetica" font-size="24.0" fill="#FEFFFE" transform="matrix(1.00, 0.00, -0.00, -1.00, 633.5, 374.5)">S</text><text xml:space="preserve" font-family="Helvetica-Light,Helvetica" font-size="24.0" fill="#FEFFFE" transform="matrix(1.00, 0.00, -0.00, -1.00, 648.1, 374.5)">l</text><text xml:space="preserve" font-family="Helvetica-Light,Helvetica" font-size="24.0" fill="#FEFFFE" transform="matrix(1.00, 0.00, -0.00, -1.00, 653.5, 374.5)">i</text><text xml:space="preserve" font-family="Helvetica-Light,Helvetica" font-size="24.0" fill="#FEFFFE" transform="matrix(1.00, 0.00, -0.00, -1.00, 658.8, 374.5)">c</text><text xml:space="preserve" font-family="Helvetica-Light,Helvetica" font-size="24.0" fill="#FEFFFE" transform="matrix(1.00, 0.00, -0.00, -1.00, 672.1, 374.5)">e</text></g></g><image xlink:href="../../C6FEA4A2-C360-46BE-813E-F6FF93D82E2F/assets/4517C0667387A88FE6C1698F642E3356.png" width="208.00" height="108.00" transform="matrix(1.00, 0.00, -0.00, -1.00, 520.0, 308.0)" opacity="0.50"></image><g><clipPath id="clip0x60800eeaed60"><path d="M 523.0 304.0 L 723.0 304.0 L 723.0 204.0 L 523.0 204.0 Z M 523.0 304.0 "></path></clipPath><g clip-path="url(#clip0x60800eeaed60)"><image xlink:href="../../C6FEA4A2-C360-46BE-813E-F6FF93D82E2F/assets/57C63BC369DF2E161F93135AB5988468.png" width="600.00" height="600.00" transform="matrix(0.50, 0.00, -0.00, -0.50, 523.0, 304.0)"></image></g></g><g><clipPath id="clip0x600009ab85a0"><path d="M 521.0 204.0 L 725.0 204.0 L 725.0 304.0 L 521.0 304.0 Z M 521.0 204.0 "></path></clipPath><g clip-path="url(#clip0x600009ab85a0)"><text xml:space="preserve" font-family="Helvetica-Light,Helvetica" font-size="24.0" fill="#FEFFFE" transform="matrix(1.00, 0.00, -0.00, -1.00, 560.5, 244.5)">G</text><text xml:space="preserve" font-family="Helvetica-Light,Helvetica" font-size="24.0" fill="#FEFFFE" transform="matrix(1.00, 0.00, -0.00, -1.00, 579.2, 244.5)">r</text><text xml:space="preserve" font-family="Helvetica-Light,Helvetica" font-size="24.0" fill="#FEFFFE" transform="matrix(1.00, 0.00, -0.00, -1.00, 586.8, 244.5)">e</text><text xml:space="preserve" font-family="Helvetica-Light,Helvetica" font-size="24.0" fill="#FEFFFE" transform="matrix(1.00, 0.00, -0.00, -1.00, 600.1, 244.5)">e</text><text xml:space="preserve" font-family="Helvetica-Light,Helvetica" font-size="24.0" fill="#FEFFFE" transform="matrix(1.00, 0.00, -0.00, -1.00, 613.4, 244.5)">n</text><text xml:space="preserve" font-family="Helvetica-Light,Helvetica" font-size="24.0" fill="#FEFFFE" transform="matrix(1.00, 0.00, -0.00, -1.00, 626.8, 244.5)"> </text><text xml:space="preserve" font-family="Helvetica-Light,Helvetica" font-size="24.0" fill="#FEFFFE" transform="matrix(1.00, 0.00, -0.00, -1.00, 633.5, 244.5)">S</text><text xml:space="preserve" font-family="Helvetica-Light,Helvetica" font-size="24.0" fill="#FEFFFE" transform="matrix(1.00, 0.00, -0.00, -1.00, 648.1, 244.5)">l</text><text xml:space="preserve" font-family="Helvetica-Light,Helvetica" font-size="24.0" fill="#FEFFFE" transform="matrix(1.00, 0.00, -0.00, -1.00, 653.5, 244.5)">i</text><text xml:space="preserve" font-family="Helvetica-Light,Helvetica" font-size="24.0" fill="#FEFFFE" transform="matrix(1.00, 0.00, -0.00, -1.00, 658.8, 244.5)">c</text><text xml:space="preserve" font-family="Helvetica-Light,Helvetica" font-size="24.0" fill="#FEFFFE" transform="matrix(1.00, 0.00, -0.00, -1.00, 672.1, 244.5)">e</text></g></g><image xlink:href="../../C6FEA4A2-C360-46BE-813E-F6FF93D82E2F/assets/974E4F700C5836FFBD0F6D081A185FB5.png" width="204.00" height="79.00" transform="matrix(1.00, 0.00, -0.00, -1.00, 411.0, 647.9)" opacity="0.79"></image><g><clipPath id="clip0x600009ab8c60"><path d="M 412.0 647.0 L 612.0 647.0 L 612.0 572.0 L 412.0 572.0 Z M 411.5 647.2 "></path></clipPath><g clip-path="url(#clip0x600009ab8c60)"><image xlink:href="../../C6FEA4A2-C360-46BE-813E-F6FF93D82E2F/assets/1DCD970325A402F83F095B3789B6FDC2.png" width="600.00" height="600.00" transform="matrix(0.50, 0.00, -0.00, -0.50, 412.0, 647.0)"></image></g></g><g><clipPath id="clip0x60800eeaefa0"><path d="M 409.5 572.2 L 613.5 572.2 L 613.5 647.2 L 409.5 647.2 Z M 409.5 572.2 "></path></clipPath><g clip-path="url(#clip0x60800eeaefa0)"><text xml:space="preserve" font-family="Helvetica-Light,Helvetica" font-size="24.0" fill="#FEFFFE" transform="matrix(1.00, 0.00, -0.00, -1.00, 476.1, 600.7)">R</text><text xml:space="preserve" font-family="Helvetica-Light,Helvetica" font-size="24.0" fill="#FEFFFE" transform="matrix(1.00, 0.00, -0.00, -1.00, 492.2, 600.7)">o</text><text xml:space="preserve" font-family="Helvetica-Light,Helvetica" font-size="24.0" fill="#FEFFFE" transform="matrix(1.00, 0.00, -0.00, -1.00, 505.5, 600.7)">u</text><text xml:space="preserve" font-family="Helvetica-Light,Helvetica" font-size="24.0" fill="#FEFFFE" transform="matrix(1.00, 0.00, -0.00, -1.00, 518.8, 600.7)">t</text><text xml:space="preserve" font-family="Helvetica-Light,Helvetica" font-size="24.0" fill="#FEFFFE" transform="matrix(1.00, 0.00, -0.00, -1.00, 525.5, 600.7)">e</text><text xml:space="preserve" font-family="Helvetica-Light,Helvetica" font-size="24.0" fill="#FEFFFE" transform="matrix(1.00, 0.00, -0.00, -1.00, 538.9, 600.7)">r</text></g></g><path d="M 0.0 0.0 L 163.1 0.0 L 164.6 0.0 " fill="none" stroke="#A6AAA8" stroke-width="3.00" stroke-linecap="round" stroke-dasharray="0.0, 9.0" transform="matrix(0.62, -0.78, -0.78, -0.62, 516.0, 571.8)"></path><path d="M 612.5 440.2 L 625.9 434.0 L 622.9 448.4 Z M 612.5 440.2 " fill="#A6AAA8"></path><path d="M 0.0 0.0 L 167.0 0.0 L 168.0 0.0 " fill="none" stroke="#763E9B" stroke-width="2.00" transform="matrix(-0.62, -0.78, -0.78, 0.62, 515.1, 571.8)"></path><path d="M 407.4 444.2 L 405.1 433.7 L 414.9 438.2 Z M 407.4 444.2 " fill="#763E9B"></path></g></svg>