<?xml version="1.0" encoding="UTF-8" standalone="no"?><svg xmlns="http://www.w3.org/2000/svg" xmlns:xlink="http://www.w3.org/1999/xlink" clip-rule="evenodd" stroke-miterlimit="10" viewBox="0 0 1024 768"><desc>SVG generated by Keynote</desc><defs></defs><g transform="matrix(1.00, 0.00, -0.00, -1.00, 0.0, 768.0)"><path d="M 0.0 768.0 L 1024.0 768.0 L 1024.0 0.0 L 0.0 0.0 Z M 0.0 768.0 " fill="#FEFFFF"></path><image xlink:href="../../3BC8020D-1F36-4539-B9AC-02F2FA89CB7E/assets/7F4F24FAB2BE4AECA15887D26A47A79B.png" width="1830.00" height="964.00" transform="matrix(0.08, 0.00, -0.00, -0.08, 825.0, 118.0)"></image><text xml:space="preserve" font-family="SourceSansPro-Light,Source Sans Pro" font-size="96.0" fill="#081E2B" transform="matrix(1.00, 0.00, -0.00, -1.00, 126.0, 350.2)">R</text><text xml:space="preserve" font-family="SourceSansPro-Light,Source Sans Pro" font-size="96.0" fill="#081E2B" transform="matrix(1.00, 0.00, -0.00, -1.00, 178.8, 350.2)">e</text><text xml:space="preserve" font-family="SourceSansPro-Light,Source Sans Pro" font-size="96.0" fill="#081E2B" transform="matrix(1.00, 0.00, -0.00, -1.00, 223.7, 350.2)">a</text><text xml:space="preserve" font-family="SourceSansPro-Light,Source Sans Pro" font-size="96.0" fill="#081E2B" transform="matrix(1.00, 0.00, -0.00, -1.00, 271.6, 350.2)">l</text><text xml:space="preserve" font-family="SourceSansPro-Light,Source Sans Pro" font-size="96.0" fill="#081E2B" transform="matrix(1.00, 0.00, -0.00, -1.00, 294.4, 350.2)"> </text><text xml:space="preserve" font-family="SourceSansPro-Light,Source Sans Pro" font-size="96.0" fill="#081E2B" transform="matrix(1.00, 0.00, -0.00, -1.00, 313.5, 350.2)">W</text><text xml:space="preserve" font-family="SourceSansPro-Light,Source Sans Pro" font-size="96.0" fill="#081E2B" transform="matrix(1.00, 0.00, -0.00, -1.00, 387.4, 350.2)">o</text><text xml:space="preserve" font-family="SourceSansPro-Light,Source Sans Pro" font-size="96.0" fill="#081E2B" transform="matrix(1.00, 0.00, -0.00, -1.00, 438.8, 350.2)">r</text><text xml:space="preserve" font-family="SourceSansPro-Light,Source Sans Pro" font-size="96.0" fill="#081E2B" transform="matrix(1.00, 0.00, -0.00, -1.00, 469.2, 350.2)">l</text><text xml:space="preserve" font-family="SourceSansPro-Light,Source Sans Pro" font-size="96.0" fill="#081E2B" transform="matrix(1.00, 0.00, -0.00, -1.00, 491.9, 350.2)">d</text><text xml:space="preserve" font-family="SourceSansPro-Light,Source Sans Pro" font-size="96.0" fill="#081E2B" transform="matrix(1.00, 0.00, -0.00, -1.00, 544.2, 350.2)"> </text><text xml:space="preserve" font-family="SourceSansPro-Light,Source Sans Pro" font-size="96.0" fill="#081E2B" transform="matrix(1.00, 0.00, -0.00, -1.00, 563.3, 350.2)">E</text><text xml:space="preserve" font-family="SourceSansPro-Light,Source Sans Pro" font-size="96.0" fill="#081E2B" transform="matrix(1.00, 0.00, -0.00, -1.00, 612.7, 350.2)">x</text><text xml:space="preserve" font-family="SourceSansPro-Light,Source Sans Pro" font-size="96.0" fill="#081E2B" transform="matrix(1.00, 0.00, -0.00, -1.00, 650.8, 350.2)">a</text><text xml:space="preserve" font-family="SourceSansPro-Light,Source Sans Pro" font-size="96.0" fill="#081E2B" transform="matrix(1.00, 0.00, -0.00, -1.00, 698.7, 350.2)">m</text><text xml:space="preserve" font-family="SourceSansPro-Light,Source Sans Pro" font-size="96.0" fill="#081E2B" transform="matrix(1.00, 0.00, -0.00, -1.00, 776.7, 350.2)">p</text><text xml:space="preserve" font-family="SourceSansPro-Light,Source Sans Pro" font-size="96.0" fill="#081E2B" transform="matrix(1.00, 0.00, -0.00, -1.00, 828.9, 350.2)">l</text><text xml:space="preserve" font-family="SourceSansPro-Light,Source Sans Pro" font-size="96.0" fill="#081E2B" transform="matrix(1.00, 0.00, -0.00, -1.00, 851.6, 350.2)">e</text></g></svg>