<?xml version="1.0" encoding="UTF-8" standalone="no"?><svg xmlns="http://www.w3.org/2000/svg" xmlns:xlink="http://www.w3.org/1999/xlink" clip-rule="evenodd" stroke-miterlimit="10" viewBox="0 0 1024 768"><desc>SVG generated by Keynote</desc><defs></defs><g transform="matrix(1.00, 0.00, -0.00, -1.00, 0.0, 768.0)"><path d="M 0.0 768.0 L 1024.0 768.0 L 1024.0 0.0 L 0.0 0.0 Z M 0.0 768.0 " fill="#081E2B"></path><image xlink:href="../../3BC8020D-1F36-4539-B9AC-02F2FA89CB7E/assets/7F4F24FAB2BE4AECA15887D26A47A79B.png" width="1830.00" height="964.00" transform="matrix(0.08, 0.00, -0.00, -0.08, 825.0, 118.0)"></image><text xml:space="preserve" font-family="SourceSansPro-Light,Source Sans Pro" font-size="96.0" fill="#D1CCBD" transform="matrix(1.00, 0.00, -0.00, -1.00, 250.3, 410.2)">T</text><text xml:space="preserve" font-family="SourceSansPro-Light,Source Sans Pro" font-size="96.0" fill="#D1CCBD" transform="matrix(1.00, 0.00, -0.00, -1.00, 293.1, 410.2)">a</text><text xml:space="preserve" font-family="SourceSansPro-Light,Source Sans Pro" font-size="96.0" fill="#D1CCBD" transform="matrix(1.00, 0.00, -0.00, -1.00, 341.0, 410.2)">l</text><text xml:space="preserve" font-family="SourceSansPro-Light,Source Sans Pro" font-size="96.0" fill="#D1CCBD" transform="matrix(1.00, 0.00, -0.00, -1.00, 363.8, 410.2)">k</text><text xml:space="preserve" font-family="SourceSansPro-Light,Source Sans Pro" font-size="96.0" fill="#D1CCBD" transform="matrix(1.00, 0.00, -0.00, -1.00, 408.3, 410.2)">i</text><text xml:space="preserve" font-family="SourceSansPro-Light,Source Sans Pro" font-size="96.0" fill="#D1CCBD" transform="matrix(1.00, 0.00, -0.00, -1.00, 430.3, 410.2)">n</text><text xml:space="preserve" font-family="SourceSansPro-Light,Source Sans Pro" font-size="96.0" fill="#D1CCBD" transform="matrix(1.00, 0.00, -0.00, -1.00, 481.4, 410.2)">g</text><text xml:space="preserve" font-family="SourceSansPro-Light,Source Sans Pro" font-size="96.0" fill="#D1CCBD" transform="matrix(1.00, 0.00, -0.00, -1.00, 528.1, 410.2)"> </text><text xml:space="preserve" font-family="SourceSansPro-Light,Source Sans Pro" font-size="96.0" fill="#D1CCBD" transform="matrix(1.00, 0.00, -0.00, -1.00, 547.2, 410.2)">t</text><text xml:space="preserve" font-family="SourceSansPro-Light,Source Sans Pro" font-size="96.0" fill="#D1CCBD" transform="matrix(1.00, 0.00, -0.00, -1.00, 576.2, 410.2)">o</text><text xml:space="preserve" font-family="SourceSansPro-Light,Source Sans Pro" font-size="96.0" fill="#D1CCBD" transform="matrix(1.00, 0.00, -0.00, -1.00, 627.6, 410.2)"> </text><text xml:space="preserve" font-family="SourceSansPro-Light,Source Sans Pro" font-size="96.0" fill="#D1CCBD" transform="matrix(1.00, 0.00, -0.00, -1.00, 646.7, 410.2)">t</text><text xml:space="preserve" font-family="SourceSansPro-Light,Source Sans Pro" font-size="96.0" fill="#D1CCBD" transform="matrix(1.00, 0.00, -0.00, -1.00, 676.6, 410.2)">h</text><text xml:space="preserve" font-family="SourceSansPro-Light,Source Sans Pro" font-size="96.0" fill="#D1CCBD" transform="matrix(1.00, 0.00, -0.00, -1.00, 727.3, 410.2)">e</text><text xml:space="preserve" font-family="SourceSansPro-Light,Source Sans Pro" font-size="96.0" fill="#D1CCBD" transform="matrix(1.00, 0.00, -0.00, -1.00, 773.7, 410.2)"> </text><text xml:space="preserve" font-family="SourceSansPro-Light,Source Sans Pro" font-size="96.0" fill="#D1CCBD" transform="matrix(1.00, 0.00, -0.00, -1.00, 245.4, 290.2)">o</text><text xml:space="preserve" font-family="SourceSansPro-Light,Source Sans Pro" font-size="96.0" fill="#D1CCBD" transform="matrix(1.00, 0.00, -0.00, -1.00, 296.8, 290.2)">u</text><text xml:space="preserve" font-family="SourceSansPro-Light,Source Sans Pro" font-size="96.0" fill="#D1CCBD" transform="matrix(1.00, 0.00, -0.00, -1.00, 347.6, 290.2)">t</text><text xml:space="preserve" font-family="SourceSansPro-Light,Source Sans Pro" font-size="96.0" fill="#D1CCBD" transform="matrix(1.00, 0.00, -0.00, -1.00, 377.5, 290.2)">s</text><text xml:space="preserve" font-family="SourceSansPro-Light,Source Sans Pro" font-size="96.0" fill="#D1CCBD" transform="matrix(1.00, 0.00, -0.00, -1.00, 416.4, 290.2)">i</text><text xml:space="preserve" font-family="SourceSansPro-Light,Source Sans Pro" font-size="96.0" fill="#D1CCBD" transform="matrix(1.00, 0.00, -0.00, -1.00, 438.4, 290.2)">d</text><text xml:space="preserve" font-family="SourceSansPro-Light,Source Sans Pro" font-size="96.0" fill="#D1CCBD" transform="matrix(1.00, 0.00, -0.00, -1.00, 490.6, 290.2)">e</text><text xml:space="preserve" font-family="SourceSansPro-Light,Source Sans Pro" font-size="96.0" fill="#D1CCBD" transform="matrix(1.00, 0.00, -0.00, -1.00, 537.0, 290.2)"> </text><text xml:space="preserve" font-family="SourceSansPro-Light,Source Sans Pro" font-size="96.0" fill="#D1CCBD" transform="matrix(1.00, 0.00, -0.00, -1.00, 556.1, 290.2)">w</text><text xml:space="preserve" font-family="SourceSansPro-Light,Source Sans Pro" font-size="96.0" fill="#D1CCBD" transform="matrix(1.00, 0.00, -0.00, -1.00, 621.8, 290.2)">o</text><text xml:space="preserve" font-family="SourceSansPro-Light,Source Sans Pro" font-size="96.0" fill="#D1CCBD" transform="matrix(1.00, 0.00, -0.00, -1.00, 673.2, 290.2)">r</text><text xml:space="preserve" font-family="SourceSansPro-Light,Source Sans Pro" font-size="96.0" fill="#D1CCBD" transform="matrix(1.00, 0.00, -0.00, -1.00, 703.6, 290.2)">l</text><text xml:space="preserve" font-family="SourceSansPro-Light,Source Sans Pro" font-size="96.0" fill="#D1CCBD" transform="matrix(1.00, 0.00, -0.00, -1.00, 726.4, 290.2)">d</text></g></svg>