<?xml version="1.0" encoding="UTF-8" standalone="no"?><svg xmlns="http://www.w3.org/2000/svg" xmlns:xlink="http://www.w3.org/1999/xlink" clip-rule="evenodd" stroke-miterlimit="10" viewBox="0 0 1024 768"><desc>SVG generated by Keynote</desc><defs></defs><g transform="matrix(1.00, 0.00, -0.00, -1.00, 0.0, 768.0)"><path d="M 0.0 768.0 L 1024.0 768.0 L 1024.0 0.0 L 0.0 0.0 Z M 0.0 768.0 " fill="#FEFFFF"></path><image xlink:href="../../3BC8020D-1F36-4539-B9AC-02F2FA89CB7E/assets/7F4F24FAB2BE4AECA15887D26A47A79B.png" width="1830.00" height="964.00" transform="matrix(0.08, 0.00, -0.00, -0.08, 825.0, 118.0)"></image><text xml:space="preserve" font-family="SourceSansPro-Light,Source Sans Pro" font-size="96.0" fill="#081E2B" transform="matrix(1.00, 0.00, -0.00, -1.00, 132.6, 410.2)">P</text><text xml:space="preserve" font-family="SourceSansPro-Light,Source Sans Pro" font-size="96.0" fill="#081E2B" transform="matrix(1.00, 0.00, -0.00, -1.00, 186.3, 410.2)">I</text><text xml:space="preserve" font-family="SourceSansPro-Light,Source Sans Pro" font-size="96.0" fill="#081E2B" transform="matrix(1.00, 0.00, -0.00, -1.00, 209.3, 410.2)">D</text><text xml:space="preserve" font-family="SourceSansPro-Light,Source Sans Pro" font-size="96.0" fill="#081E2B" transform="matrix(1.00, 0.00, -0.00, -1.00, 267.3, 410.2)"> </text><text xml:space="preserve" font-family="SourceSansPro-Light,Source Sans Pro" font-size="96.0" fill="#081E2B" transform="matrix(1.00, 0.00, -0.00, -1.00, 286.4, 410.2)">S</text><text xml:space="preserve" font-family="SourceSansPro-Light,Source Sans Pro" font-size="96.0" fill="#081E2B" transform="matrix(1.00, 0.00, -0.00, -1.00, 336.4, 410.2)">e</text><text xml:space="preserve" font-family="SourceSansPro-Light,Source Sans Pro" font-size="96.0" fill="#081E2B" transform="matrix(1.00, 0.00, -0.00, -1.00, 381.7, 410.2)">t</text><text xml:space="preserve" font-family="SourceSansPro-Light,Source Sans Pro" font-size="96.0" fill="#081E2B" transform="matrix(1.00, 0.00, -0.00, -1.00, 411.7, 410.2)">t</text><text xml:space="preserve" font-family="SourceSansPro-Light,Source Sans Pro" font-size="96.0" fill="#081E2B" transform="matrix(1.00, 0.00, -0.00, -1.00, 441.6, 410.2)">i</text><text xml:space="preserve" font-family="SourceSansPro-Light,Source Sans Pro" font-size="96.0" fill="#081E2B" transform="matrix(1.00, 0.00, -0.00, -1.00, 463.6, 410.2)">n</text><text xml:space="preserve" font-family="SourceSansPro-Light,Source Sans Pro" font-size="96.0" fill="#081E2B" transform="matrix(1.00, 0.00, -0.00, -1.00, 514.7, 410.2)">g</text><text xml:space="preserve" font-family="SourceSansPro-Light,Source Sans Pro" font-size="96.0" fill="#081E2B" transform="matrix(1.00, 0.00, -0.00, -1.00, 561.4, 410.2)">s</text><text xml:space="preserve" font-family="SourceSansPro-Light,Source Sans Pro" font-size="96.0" fill="#081E2B" transform="matrix(1.00, 0.00, -0.00, -1.00, 600.3, 410.2)">,</text><text xml:space="preserve" font-family="SourceSansPro-Light,Source Sans Pro" font-size="96.0" fill="#081E2B" transform="matrix(1.00, 0.00, -0.00, -1.00, 621.3, 410.2)"> </text><text xml:space="preserve" font-family="SourceSansPro-Light,Source Sans Pro" font-size="96.0" fill="#081E2B" transform="matrix(1.00, 0.00, -0.00, -1.00, 640.4, 410.2)">r</text><text xml:space="preserve" font-family="SourceSansPro-Light,Source Sans Pro" font-size="96.0" fill="#081E2B" transform="matrix(1.00, 0.00, -0.00, -1.00, 669.9, 410.2)">e</text><text xml:space="preserve" font-family="SourceSansPro-Light,Source Sans Pro" font-size="96.0" fill="#081E2B" transform="matrix(1.00, 0.00, -0.00, -1.00, 716.3, 410.2)">s</text><text xml:space="preserve" font-family="SourceSansPro-Light,Source Sans Pro" font-size="96.0" fill="#081E2B" transform="matrix(1.00, 0.00, -0.00, -1.00, 755.2, 410.2)">t</text><text xml:space="preserve" font-family="SourceSansPro-Light,Source Sans Pro" font-size="96.0" fill="#081E2B" transform="matrix(1.00, 0.00, -0.00, -1.00, 783.1, 410.2)">a</text><text xml:space="preserve" font-family="SourceSansPro-Light,Source Sans Pro" font-size="96.0" fill="#081E2B" transform="matrix(1.00, 0.00, -0.00, -1.00, 831.0, 410.2)">r</text><text xml:space="preserve" font-family="SourceSansPro-Light,Source Sans Pro" font-size="96.0" fill="#081E2B" transform="matrix(1.00, 0.00, -0.00, -1.00, 861.4, 410.2)">t</text><text xml:space="preserve" font-family="SourceSansPro-Light,Source Sans Pro" font-size="96.0" fill="#081E2B" transform="matrix(1.00, 0.00, -0.00, -1.00, 891.4, 410.2)"> </text><text xml:space="preserve" font-family="SourceSansPro-Light,Source Sans Pro" font-size="96.0" fill="#081E2B" transform="matrix(1.00, 0.00, -0.00, -1.00, 273.4, 290.2)">p</text><text xml:space="preserve" font-family="SourceSansPro-Light,Source Sans Pro" font-size="96.0" fill="#081E2B" transform="matrix(1.00, 0.00, -0.00, -1.00, 325.6, 290.2)">o</text><text xml:space="preserve" font-family="SourceSansPro-Light,Source Sans Pro" font-size="96.0" fill="#081E2B" transform="matrix(1.00, 0.00, -0.00, -1.00, 377.0, 290.2)">l</text><text xml:space="preserve" font-family="SourceSansPro-Light,Source Sans Pro" font-size="96.0" fill="#081E2B" transform="matrix(1.00, 0.00, -0.00, -1.00, 399.7, 290.2)">i</text><text xml:space="preserve" font-family="SourceSansPro-Light,Source Sans Pro" font-size="96.0" fill="#081E2B" transform="matrix(1.00, 0.00, -0.00, -1.00, 421.7, 290.2)">c</text><text xml:space="preserve" font-family="SourceSansPro-Light,Source Sans Pro" font-size="96.0" fill="#081E2B" transform="matrix(1.00, 0.00, -0.00, -1.00, 464.8, 290.2)">i</text><text xml:space="preserve" font-family="SourceSansPro-Light,Source Sans Pro" font-size="96.0" fill="#081E2B" transform="matrix(1.00, 0.00, -0.00, -1.00, 486.8, 290.2)">e</text><text xml:space="preserve" font-family="SourceSansPro-Light,Source Sans Pro" font-size="96.0" fill="#081E2B" transform="matrix(1.00, 0.00, -0.00, -1.00, 533.2, 290.2)">s</text><text xml:space="preserve" font-family="SourceSansPro-Light,Source Sans Pro" font-size="96.0" fill="#081E2B" transform="matrix(1.00, 0.00, -0.00, -1.00, 572.0, 290.2)">,</text><text xml:space="preserve" font-family="SourceSansPro-Light,Source Sans Pro" font-size="96.0" fill="#081E2B" transform="matrix(1.00, 0.00, -0.00, -1.00, 593.1, 290.2)"> </text><text xml:space="preserve" font-family="SourceSansPro-Light,Source Sans Pro" font-size="96.0" fill="#081E2B" transform="matrix(1.00, 0.00, -0.00, -1.00, 612.2, 290.2)">e</text><text xml:space="preserve" font-family="SourceSansPro-Light,Source Sans Pro" font-size="96.0" fill="#081E2B" transform="matrix(1.00, 0.00, -0.00, -1.00, 657.5, 290.2)">t</text><text xml:space="preserve" font-family="SourceSansPro-Light,Source Sans Pro" font-size="96.0" fill="#081E2B" transform="matrix(1.00, 0.00, -0.00, -1.00, 686.5, 290.2)">c</text><text xml:space="preserve" font-family="SourceSansPro-Light,Source Sans Pro" font-size="96.0" fill="#081E2B" transform="matrix(1.00, 0.00, -0.00, -1.00, 729.6, 290.2)">.</text></g></svg>