<?xml version="1.0" encoding="UTF-8" standalone="no"?><svg xmlns="http://www.w3.org/2000/svg" xmlns:xlink="http://www.w3.org/1999/xlink" clip-rule="evenodd" stroke-miterlimit="10" viewBox="0 0 1024 768"><desc>SVG generated by Keynote</desc><defs></defs><g transform="matrix(1.00, 0.00, -0.00, -1.00, 0.0, 768.0)"><path d="M 0.0 768.0 L 1024.0 768.0 L 1024.0 0.0 L 0.0 0.0 Z M 0.0 768.0 " fill="#FEFFFF"></path><image xlink:href="../../3BC8020D-1F36-4539-B9AC-02F2FA89CB7E/assets/7F4F24FAB2BE4AECA15887D26A47A79B.png" width="1830.00" height="964.00" transform="matrix(0.08, 0.00, -0.00, -0.08, 825.0, 118.0)"></image><text xml:space="preserve" font-family="SourceSansPro-Light,Source Sans Pro" font-size="96.0" fill="#081E2B" transform="matrix(1.00, 0.00, -0.00, -1.00, 296.9, 350.2)">Q</text><text xml:space="preserve" font-family="SourceSansPro-Light,Source Sans Pro" font-size="96.0" fill="#081E2B" transform="matrix(1.00, 0.00, -0.00, -1.00, 359.5, 350.2)">u</text><text xml:space="preserve" font-family="SourceSansPro-Light,Source Sans Pro" font-size="96.0" fill="#081E2B" transform="matrix(1.00, 0.00, -0.00, -1.00, 410.3, 350.2)">e</text><text xml:space="preserve" font-family="SourceSansPro-Light,Source Sans Pro" font-size="96.0" fill="#081E2B" transform="matrix(1.00, 0.00, -0.00, -1.00, 456.7, 350.2)">s</text><text xml:space="preserve" font-family="SourceSansPro-Light,Source Sans Pro" font-size="96.0" fill="#081E2B" transform="matrix(1.00, 0.00, -0.00, -1.00, 495.5, 350.2)">t</text><text xml:space="preserve" font-family="SourceSansPro-Light,Source Sans Pro" font-size="96.0" fill="#081E2B" transform="matrix(1.00, 0.00, -0.00, -1.00, 525.5, 350.2)">i</text><text xml:space="preserve" font-family="SourceSansPro-Light,Source Sans Pro" font-size="96.0" fill="#081E2B" transform="matrix(1.00, 0.00, -0.00, -1.00, 547.5, 350.2)">o</text><text xml:space="preserve" font-family="SourceSansPro-Light,Source Sans Pro" font-size="96.0" fill="#081E2B" transform="matrix(1.00, 0.00, -0.00, -1.00, 598.8, 350.2)">n</text><text xml:space="preserve" font-family="SourceSansPro-Light,Source Sans Pro" font-size="96.0" fill="#081E2B" transform="matrix(1.00, 0.00, -0.00, -1.00, 649.9, 350.2)">s</text><text xml:space="preserve" font-family="SourceSansPro-Light,Source Sans Pro" font-size="96.0" fill="#081E2B" transform="matrix(1.00, 0.00, -0.00, -1.00, 688.5, 350.2)">?</text></g></svg>