<?xml version="1.0" encoding="UTF-8" standalone="no"?><svg xmlns="http://www.w3.org/2000/svg" xmlns:xlink="http://www.w3.org/1999/xlink" clip-rule="evenodd" stroke-miterlimit="10" viewBox="0 0 1024 768"><desc>SVG generated by Keynote</desc><defs><linearGradient id="gradSh1.57" x1="0.0" y1="0.0" x2="100.0" y2="0.0" gradientUnits="userSpaceOnUse" gradientTransform="matrix(0.00, -0.77, -8.02, 0.00, 512.0, 352.0)"><stop offset="0.00000" stop-color="#FBFBFB"></stop><stop offset="0.01466" stop-color="#FAFAFA"></stop><stop offset="1.00000" stop-color="#BEBEBE"></stop></linearGradient><linearGradient id="gradSh1.58" x1="0.0" y1="0.0" x2="100.0" y2="0.0" gradientUnits="userSpaceOnUse" gradientTransform="matrix(0.00, -0.77, -8.02, 0.00, 512.0, 246.0)"><stop offset="0.00000" stop-color="#FBFBFB"></stop><stop offset="0.01466" stop-color="#FAFAFA"></stop><stop offset="1.00000" stop-color="#BEBEBE"></stop></linearGradient><linearGradient id="gradSh1.59" x1="0.0" y1="0.0" x2="100.0" y2="0.0" gradientUnits="userSpaceOnUse" gradientTransform="matrix(0.00, -0.77, -3.77, 0.00, 299.5, 669.0)"><stop offset="0.00000" stop-color="#FBFBFB"></stop><stop offset="0.01466" stop-color="#FAFAFA"></stop><stop offset="1.00000" stop-color="#BEBEBE"></stop></linearGradient><linearGradient id="gradSh1.60" x1="0.0" y1="0.0" x2="100.0" y2="0.0" gradientUnits="userSpaceOnUse" gradientTransform="matrix(0.00, -0.77, -3.76, 0.00, 726.0, 669.0)"><stop offset="0.00000" stop-color="#FBFBFB"></stop><stop offset="0.01466" stop-color="#FAFAFA"></stop><stop offset="1.00000" stop-color="#BEBEBE"></stop></linearGradient><linearGradient id="gradSh1.61" x1="0.0" y1="0.0" x2="100.0" y2="0.0" gradientUnits="userSpaceOnUse" gradientTransform="matrix(0.00, -0.77, -8.02, 0.00, 512.0, 457.0)"><stop offset="0.00000" stop-color="#FBFBFB"></stop><stop offset="0.01466" stop-color="#FAFAFA"></stop><stop offset="1.00000" stop-color="#BEBEBE"></stop></linearGradient><linearGradient id="gradSh1.62" x1="0.0" y1="0.0" x2="100.0" y2="0.0" gradientUnits="userSpaceOnUse" gradientTransform="matrix(0.00, -0.77, -8.02, 0.00, 512.0, 563.0)"><stop offset="0.00000" stop-color="#FBFBFB"></stop><stop offset="0.01466" stop-color="#FAFAFA"></stop><stop offset="1.00000" stop-color="#BEBEBE"></stop></linearGradient></defs><g transform="matrix(1.00, 0.00, -0.00, -1.00, 0.0, 768.0)"><path d="M 0.0 768.0 L 1024.0 768.0 L 1024.0 0.0 L 0.0 0.0 Z M 0.0 768.0 " fill="#081E2B"></path><image xlink:href="../../3BC8020D-1F36-4539-B9AC-02F2FA89CB7E/assets/7F4F24FAB2BE4AECA15887D26A47A79B.png" width="1830.00" height="964.00" transform="matrix(0.08, 0.00, -0.00, -0.08, 825.0, 118.0)"></image><image xlink:href="../../9F9DE39B-1EA2-4365-852F-C1650236E00D/assets/66CED7F545D03A2AD0FB976AC32F2C3C.png" width="806.00" height="81.00" transform="matrix(1.00, 0.00, -0.00, -1.00, 109.1, 351.6)" opacity="0.50"></image><g><clipPath id="clip0x6000080aafe0"><path d="M 112.0 351.0 L 912.0 351.0 L 912.0 276.0 L 112.0 276.0 Z M 112.1 350.6 "></path></clipPath><g clip-path="url(#clip0x6000080aafe0)"><path d="M 112.0 351.0 L 912.0 351.0 L 912.0 276.0 L 112.0 276.0 Z M 112.1 350.6 " fill="url(#gradSh1.57)"></path></g></g><g><clipPath id="clip0x6000086abbe0"><path d="M 110.1 275.6 L 913.9 275.6 L 913.9 350.6 L 110.1 350.6 Z M 110.1 275.6 "></path></clipPath><g clip-path="url(#clip0x6000086abbe0)"><text xml:space="preserve" font-family="Helvetica-Light,Helvetica" font-size="24.0" fill="#000000" transform="matrix(1.00, 0.00, -0.00, -1.00, 415.0, 304.1)">T</text><text xml:space="preserve" font-family="Helvetica-Light,Helvetica" font-size="24.0" fill="#000000" transform="matrix(1.00, 0.00, -0.00, -1.00, 426.3, 304.1)">y</text><text xml:space="preserve" font-family="Helvetica-Light,Helvetica" font-size="24.0" fill="#000000" transform="matrix(1.00, 0.00, -0.00, -1.00, 438.3, 304.1)">p</text><text xml:space="preserve" font-family="Helvetica-Light,Helvetica" font-size="24.0" fill="#000000" transform="matrix(1.00, 0.00, -0.00, -1.00, 453.0, 304.1)">e</text><text xml:space="preserve" font-family="Helvetica-Light,Helvetica" font-size="24.0" fill="#000000" transform="matrix(1.00, 0.00, -0.00, -1.00, 466.3, 304.1)"> </text><text xml:space="preserve" font-family="Helvetica-Light,Helvetica" font-size="24.0" fill="#000000" transform="matrix(1.00, 0.00, -0.00, -1.00, 473.0, 304.1)">1</text><text xml:space="preserve" font-family="Helvetica-Light,Helvetica" font-size="24.0" fill="#000000" transform="matrix(1.00, 0.00, -0.00, -1.00, 486.3, 304.1)"> </text><text xml:space="preserve" font-family="Helvetica-Light,Helvetica" font-size="24.0" fill="#000000" transform="matrix(1.00, 0.00, -0.00, -1.00, 493.0, 304.1)">H</text><text xml:space="preserve" font-family="Helvetica-Light,Helvetica" font-size="24.0" fill="#000000" transform="matrix(1.00, 0.00, -0.00, -1.00, 510.3, 304.1)">y</text><text xml:space="preserve" font-family="Helvetica-Light,Helvetica" font-size="24.0" fill="#000000" transform="matrix(1.00, 0.00, -0.00, -1.00, 522.3, 304.1)">p</text><text xml:space="preserve" font-family="Helvetica-Light,Helvetica" font-size="24.0" fill="#000000" transform="matrix(1.00, 0.00, -0.00, -1.00, 537.0, 304.1)">e</text><text xml:space="preserve" font-family="Helvetica-Light,Helvetica" font-size="24.0" fill="#000000" transform="matrix(1.00, 0.00, -0.00, -1.00, 550.4, 304.1)">r</text><text xml:space="preserve" font-family="Helvetica-Light,Helvetica" font-size="24.0" fill="#000000" transform="matrix(1.00, 0.00, -0.00, -1.00, 558.3, 304.1)">v</text><text xml:space="preserve" font-family="Helvetica-Light,Helvetica" font-size="24.0" fill="#000000" transform="matrix(1.00, 0.00, -0.00, -1.00, 570.3, 304.1)">i</text><text xml:space="preserve" font-family="Helvetica-Light,Helvetica" font-size="24.0" fill="#000000" transform="matrix(1.00, 0.00, -0.00, -1.00, 575.7, 304.1)">s</text><text xml:space="preserve" font-family="Helvetica-Light,Helvetica" font-size="24.0" fill="#000000" transform="matrix(1.00, 0.00, -0.00, -1.00, 587.7, 304.1)">o</text><text xml:space="preserve" font-family="Helvetica-Light,Helvetica" font-size="24.0" fill="#000000" transform="matrix(1.00, 0.00, -0.00, -1.00, 601.0, 304.1)">r</text></g></g><image xlink:href="../../9F9DE39B-1EA2-4365-852F-C1650236E00D/assets/59969787401CBC98805E1CFDC8E26997.png" width="806.00" height="81.00" transform="matrix(1.00, 0.00, -0.00, -1.00, 109.1, 245.8)" opacity="0.50"></image><g><clipPath id="clip0x6000086ac1e0"><path d="M 112.0 245.0 L 912.0 245.0 L 912.0 170.0 L 112.0 170.0 Z M 112.1 244.8 "></path></clipPath><g clip-path="url(#clip0x6000086ac1e0)"><path d="M 112.0 245.0 L 912.0 245.0 L 912.0 170.0 L 112.0 170.0 Z M 112.1 244.8 " fill="url(#gradSh1.58)"></path></g></g><g><clipPath id="clip0x60800cea1c80"><path d="M 110.1 169.8 L 913.9 169.8 L 913.9 244.8 L 110.1 244.8 Z M 110.1 169.8 "></path></clipPath><g clip-path="url(#clip0x60800cea1c80)"><text xml:space="preserve" font-family="Helvetica-Light,Helvetica" font-size="24.0" fill="#000000" transform="matrix(1.00, 0.00, -0.00, -1.00, 454.2, 198.3)">B</text><text xml:space="preserve" font-family="Helvetica-Light,Helvetica" font-size="24.0" fill="#000000" transform="matrix(1.00, 0.00, -0.00, -1.00, 470.2, 198.3)">a</text><text xml:space="preserve" font-family="Helvetica-Light,Helvetica" font-size="24.0" fill="#000000" transform="matrix(1.00, 0.00, -0.00, -1.00, 483.5, 198.3)">r</text><text xml:space="preserve" font-family="Helvetica-Light,Helvetica" font-size="24.0" fill="#000000" transform="matrix(1.00, 0.00, -0.00, -1.00, 491.1, 198.3)">e</text><text xml:space="preserve" font-family="Helvetica-Light,Helvetica" font-size="24.0" fill="#000000" transform="matrix(1.00, 0.00, -0.00, -1.00, 504.5, 198.3)"> </text><text xml:space="preserve" font-family="Helvetica-Light,Helvetica" font-size="24.0" fill="#000000" transform="matrix(1.00, 0.00, -0.00, -1.00, 511.1, 198.3)">M</text><text xml:space="preserve" font-family="Helvetica-Light,Helvetica" font-size="24.0" fill="#000000" transform="matrix(1.00, 0.00, -0.00, -1.00, 531.1, 198.3)">e</text><text xml:space="preserve" font-family="Helvetica-Light,Helvetica" font-size="24.0" fill="#000000" transform="matrix(1.00, 0.00, -0.00, -1.00, 544.5, 198.3)">t</text><text xml:space="preserve" font-family="Helvetica-Light,Helvetica" font-size="24.0" fill="#000000" transform="matrix(1.00, 0.00, -0.00, -1.00, 551.1, 198.3)">a</text><text xml:space="preserve" font-family="Helvetica-Light,Helvetica" font-size="24.0" fill="#000000" transform="matrix(1.00, 0.00, -0.00, -1.00, 564.5, 198.3)">l</text></g></g><image xlink:href="../../9F9DE39B-1EA2-4365-852F-C1650236E00D/assets/183B637B68E2F5D652497A3DB66A5DB2.png" width="381.00" height="81.00" transform="matrix(1.00, 0.00, -0.00, -1.00, 109.0, 669.0)" opacity="0.50"></image><g><clipPath id="clip0x6000086ac2a0"><path d="M 112.0 668.0 L 487.0 668.0 L 487.0 593.0 L 112.0 593.0 Z M 112.0 668.0 "></path></clipPath><g clip-path="url(#clip0x6000086ac2a0)"><path d="M 112.0 668.0 L 487.0 668.0 L 487.0 593.0 L 112.0 593.0 Z M 112.0 668.0 " fill="url(#gradSh1.59)"></path></g></g><g><clipPath id="clip0x60800d0a2280"><path d="M 110.0 593.0 L 488.8 593.0 L 488.8 668.0 L 110.0 668.0 Z M 110.0 593.0 "></path></clipPath><g clip-path="url(#clip0x60800d0a2280)"><text xml:space="preserve" font-family="Helvetica-Light,Helvetica" font-size="24.0" fill="#000000" transform="matrix(1.00, 0.00, -0.00, -1.00, 247.4, 621.5)">C</text><text xml:space="preserve" font-family="Helvetica-Light,Helvetica" font-size="24.0" fill="#000000" transform="matrix(1.00, 0.00, -0.00, -1.00, 264.7, 621.5)">o</text><text xml:space="preserve" font-family="Helvetica-Light,Helvetica" font-size="24.0" fill="#000000" transform="matrix(1.00, 0.00, -0.00, -1.00, 278.0, 621.5)">n</text><text xml:space="preserve" font-family="Helvetica-Light,Helvetica" font-size="24.0" fill="#000000" transform="matrix(1.00, 0.00, -0.00, -1.00, 291.4, 621.5)">t</text><text xml:space="preserve" font-family="Helvetica-Light,Helvetica" font-size="24.0" fill="#000000" transform="matrix(1.00, 0.00, -0.00, -1.00, 298.1, 621.5)">a</text><text xml:space="preserve" font-family="Helvetica-Light,Helvetica" font-size="24.0" fill="#000000" transform="matrix(1.00, 0.00, -0.00, -1.00, 311.4, 621.5)">i</text><text xml:space="preserve" font-family="Helvetica-Light,Helvetica" font-size="24.0" fill="#000000" transform="matrix(1.00, 0.00, -0.00, -1.00, 316.7, 621.5)">n</text><text xml:space="preserve" font-family="Helvetica-Light,Helvetica" font-size="24.0" fill="#000000" transform="matrix(1.00, 0.00, -0.00, -1.00, 330.1, 621.5)">e</text><text xml:space="preserve" font-family="Helvetica-Light,Helvetica" font-size="24.0" fill="#000000" transform="matrix(1.00, 0.00, -0.00, -1.00, 343.4, 621.5)">r</text></g></g><image xlink:href="../../9F9DE39B-1EA2-4365-852F-C1650236E00D/assets/4082C45B68B95516B6529B1A29F75AEC.png" width="381.00" height="81.00" transform="matrix(1.00, 0.00, -0.00, -1.00, 535.7, 669.0)" opacity="0.50"></image><g><clipPath id="clip0x60800d0a26a0"><path d="M 539.0 668.0 L 913.0 668.0 L 913.0 593.0 L 539.0 593.0 Z M 538.7 668.0 "></path></clipPath><g clip-path="url(#clip0x60800d0a26a0)"><path d="M 539.0 668.0 L 913.0 668.0 L 913.0 593.0 L 539.0 593.0 Z M 538.7 668.0 " fill="url(#gradSh1.60)"></path></g></g><g><clipPath id="clip0x6000086ac4e0"><path d="M 536.7 593.0 L 915.4 593.0 L 915.4 668.0 L 536.7 668.0 Z M 536.7 593.0 "></path></clipPath><g clip-path="url(#clip0x6000086ac4e0)"><text xml:space="preserve" font-family="Helvetica-Light,Helvetica" font-size="24.0" fill="#000000" transform="matrix(1.00, 0.00, -0.00, -1.00, 674.0, 621.5)">C</text><text xml:space="preserve" font-family="Helvetica-Light,Helvetica" font-size="24.0" fill="#000000" transform="matrix(1.00, 0.00, -0.00, -1.00, 691.4, 621.5)">o</text><text xml:space="preserve" font-family="Helvetica-Light,Helvetica" font-size="24.0" fill="#000000" transform="matrix(1.00, 0.00, -0.00, -1.00, 704.7, 621.5)">n</text><text xml:space="preserve" font-family="Helvetica-Light,Helvetica" font-size="24.0" fill="#000000" transform="matrix(1.00, 0.00, -0.00, -1.00, 718.1, 621.5)">t</text><text xml:space="preserve" font-family="Helvetica-Light,Helvetica" font-size="24.0" fill="#000000" transform="matrix(1.00, 0.00, -0.00, -1.00, 724.7, 621.5)">a</text><text xml:space="preserve" font-family="Helvetica-Light,Helvetica" font-size="24.0" fill="#000000" transform="matrix(1.00, 0.00, -0.00, -1.00, 738.1, 621.5)">i</text><text xml:space="preserve" font-family="Helvetica-Light,Helvetica" font-size="24.0" fill="#000000" transform="matrix(1.00, 0.00, -0.00, -1.00, 743.4, 621.5)">n</text><text xml:space="preserve" font-family="Helvetica-Light,Helvetica" font-size="24.0" fill="#000000" transform="matrix(1.00, 0.00, -0.00, -1.00, 756.7, 621.5)">e</text><text xml:space="preserve" font-family="Helvetica-Light,Helvetica" font-size="24.0" fill="#000000" transform="matrix(1.00, 0.00, -0.00, -1.00, 770.1, 621.5)">r</text></g></g><image xlink:href="../../9F9DE39B-1EA2-4365-852F-C1650236E00D/assets/93468DB6C68AB926715156BB525C33BD.png" width="806.00" height="81.00" transform="matrix(1.00, 0.00, -0.00, -1.00, 109.1, 457.4)" opacity="0.50"></image><g><clipPath id="clip0x60800d2a2b20"><path d="M 112.0 456.0 L 912.0 456.0 L 912.0 381.0 L 112.0 381.0 Z M 112.1 456.4 "></path></clipPath><g clip-path="url(#clip0x60800d2a2b20)"><path d="M 112.0 456.0 L 912.0 456.0 L 912.0 381.0 L 112.0 381.0 Z M 112.1 456.4 " fill="url(#gradSh1.61)"></path></g></g><g><clipPath id="clip0x60800d4a2f40"><path d="M 110.1 381.4 L 913.9 381.4 L 913.9 456.4 L 110.1 456.4 Z M 110.1 381.4 "></path></clipPath><g clip-path="url(#clip0x60800d4a2f40)"><text xml:space="preserve" font-family="Helvetica-Light,Helvetica" font-size="24.0" fill="#000000" transform="matrix(1.00, 0.00, -0.00, -1.00, 462.7, 409.9)">L</text><text xml:space="preserve" font-family="Helvetica-Light,Helvetica" font-size="24.0" fill="#000000" transform="matrix(1.00, 0.00, -0.00, -1.00, 476.0, 409.9)">i</text><text xml:space="preserve" font-family="Helvetica-Light,Helvetica" font-size="24.0" fill="#000000" transform="matrix(1.00, 0.00, -0.00, -1.00, 481.3, 409.9)">n</text><text xml:space="preserve" font-family="Helvetica-Light,Helvetica" font-size="24.0" fill="#000000" transform="matrix(1.00, 0.00, -0.00, -1.00, 494.7, 409.9)">u</text><text xml:space="preserve" font-family="Helvetica-Light,Helvetica" font-size="24.0" fill="#000000" transform="matrix(1.00, 0.00, -0.00, -1.00, 508.0, 409.9)">x</text><text xml:space="preserve" font-family="Helvetica-Light,Helvetica" font-size="24.0" fill="#000000" transform="matrix(1.00, 0.00, -0.00, -1.00, 520.0, 409.9)"> </text><text xml:space="preserve" font-family="Helvetica-Light,Helvetica" font-size="24.0" fill="#000000" transform="matrix(1.00, 0.00, -0.00, -1.00, 526.7, 409.9)">V</text><text xml:space="preserve" font-family="Helvetica-Light,Helvetica" font-size="24.0" fill="#000000" transform="matrix(1.00, 0.00, -0.00, -1.00, 541.4, 409.9)">M</text></g></g><image xlink:href="../../9F9DE39B-1EA2-4365-852F-C1650236E00D/assets/A93B741C99A54119BA20688231469534.png" width="806.00" height="81.00" transform="matrix(1.00, 0.00, -0.00, -1.00, 109.1, 563.2)" opacity="0.50"></image><g><clipPath id="clip0x6000086aca80"><path d="M 112.0 562.0 L 912.0 562.0 L 912.0 487.0 L 112.0 487.0 Z M 112.1 562.2 "></path></clipPath><g clip-path="url(#clip0x6000086aca80)"><path d="M 112.0 562.0 L 912.0 562.0 L 912.0 487.0 L 112.0 487.0 Z M 112.1 562.2 " fill="url(#gradSh1.62)"></path></g></g><g><clipPath id="clip0x60800d4a3360"><path d="M 110.1 487.2 L 913.9 487.2 L 913.9 562.2 L 110.1 562.2 Z M 110.1 487.2 "></path></clipPath><g clip-path="url(#clip0x60800d4a3360)"><text xml:space="preserve" font-family="Helvetica-Light,Helvetica" font-size="24.0" fill="#000000" transform="matrix(1.00, 0.00, -0.00, -1.00, 473.3, 515.7)">D</text><text xml:space="preserve" font-family="Helvetica-Light,Helvetica" font-size="24.0" fill="#000000" transform="matrix(1.00, 0.00, -0.00, -1.00, 490.7, 515.7)">o</text><text xml:space="preserve" font-family="Helvetica-Light,Helvetica" font-size="24.0" fill="#000000" transform="matrix(1.00, 0.00, -0.00, -1.00, 504.0, 515.7)">c</text><text xml:space="preserve" font-family="Helvetica-Light,Helvetica" font-size="24.0" fill="#000000" transform="matrix(1.00, 0.00, -0.00, -1.00, 517.3, 515.7)">k</text><text xml:space="preserve" font-family="Helvetica-Light,Helvetica" font-size="24.0" fill="#000000" transform="matrix(1.00, 0.00, -0.00, -1.00, 529.3, 515.7)">e</text><text xml:space="preserve" font-family="Helvetica-Light,Helvetica" font-size="24.0" fill="#000000" transform="matrix(1.00, 0.00, -0.00, -1.00, 542.7, 515.7)">r</text></g></g></g></svg>