<?xml version="1.0" encoding="UTF-8" standalone="no"?><svg xmlns="http://www.w3.org/2000/svg" xmlns:xlink="http://www.w3.org/1999/xlink" clip-rule="evenodd" stroke-miterlimit="10" viewBox="0 0 1024 768"><desc>SVG generated by Keynote</desc><defs></defs><g transform="matrix(1.00, 0.00, -0.00, -1.00, 0.0, 768.0)"><path d="M 0.0 768.0 L 1024.0 768.0 L 1024.0 0.0 L 0.0 0.0 Z M 0.0 768.0 " fill="#081E2B"></path><image xlink:href="../../3BC8020D-1F36-4539-B9AC-02F2FA89CB7E/assets/7F4F24FAB2BE4AECA15887D26A47A79B.png" width="1830.00" height="964.00" transform="matrix(0.08, 0.00, -0.00, -0.08, 825.0, 118.0)"></image><text xml:space="preserve" font-family="SourceSansPro-Light,Source Sans Pro" font-size="96.0" fill="#D1CCBD" transform="matrix(1.00, 0.00, -0.00, -1.00, 322.7, 409.2)">E</text><text xml:space="preserve" font-family="SourceSansPro-Light,Source Sans Pro" font-size="96.0" fill="#D1CCBD" transform="matrix(1.00, 0.00, -0.00, -1.00, 372.1, 409.2)">x</text><text xml:space="preserve" font-family="SourceSansPro-Light,Source Sans Pro" font-size="96.0" fill="#D1CCBD" transform="matrix(1.00, 0.00, -0.00, -1.00, 410.0, 409.2)">e</text><text xml:space="preserve" font-family="SourceSansPro-Light,Source Sans Pro" font-size="96.0" fill="#D1CCBD" transform="matrix(1.00, 0.00, -0.00, -1.00, 456.4, 409.2)">r</text><text xml:space="preserve" font-family="SourceSansPro-Light,Source Sans Pro" font-size="96.0" fill="#D1CCBD" transform="matrix(1.00, 0.00, -0.00, -1.00, 485.9, 409.2)">c</text><text xml:space="preserve" font-family="SourceSansPro-Light,Source Sans Pro" font-size="96.0" fill="#D1CCBD" transform="matrix(1.00, 0.00, -0.00, -1.00, 529.0, 409.2)">i</text><text xml:space="preserve" font-family="SourceSansPro-Light,Source Sans Pro" font-size="96.0" fill="#D1CCBD" transform="matrix(1.00, 0.00, -0.00, -1.00, 551.0, 409.2)">s</text><text xml:space="preserve" font-family="SourceSansPro-Light,Source Sans Pro" font-size="96.0" fill="#D1CCBD" transform="matrix(1.00, 0.00, -0.00, -1.00, 589.9, 409.2)">e</text><text xml:space="preserve" font-family="SourceSansPro-Light,Source Sans Pro" font-size="96.0" fill="#D1CCBD" transform="matrix(1.00, 0.00, -0.00, -1.00, 636.2, 409.2)"> </text><text xml:space="preserve" font-family="SourceSansPro-Light,Source Sans Pro" font-size="96.0" fill="#D1CCBD" transform="matrix(1.00, 0.00, -0.00, -1.00, 655.3, 409.2)">9</text><text xml:space="preserve" font-family="Helvetica-Light,Helvetica" font-size="32.8" fill="#D1CCBD" transform="matrix(1.00, 0.00, -0.00, -1.00, 124.5, 335.5)">h</text><text xml:space="preserve" font-family="Helvetica-Light,Helvetica" font-size="32.8" fill="#D1CCBD" transform="matrix(1.00, 0.00, -0.00, -1.00, 142.7, 335.5)">t</text><text xml:space="preserve" font-family="Helvetica-Light,Helvetica" font-size="32.8" fill="#D1CCBD" transform="matrix(1.00, 0.00, -0.00, -1.00, 151.9, 335.5)">t</text><text xml:space="preserve" font-family="Helvetica-Light,Helvetica" font-size="32.8" fill="#D1CCBD" transform="matrix(1.00, 0.00, -0.00, -1.00, 161.0, 335.5)">p</text><text xml:space="preserve" font-family="Helvetica-Light,Helvetica" font-size="32.8" fill="#D1CCBD" transform="matrix(1.00, 0.00, -0.00, -1.00, 181.0, 335.5)">s</text><text xml:space="preserve" font-family="Helvetica-Light,Helvetica" font-size="32.8" fill="#D1CCBD" transform="matrix(1.00, 0.00, -0.00, -1.00, 197.4, 335.5)">:</text><text xml:space="preserve" font-family="Helvetica-Light,Helvetica" font-size="32.8" fill="#D1CCBD" transform="matrix(1.00, 0.00, -0.00, -1.00, 206.5, 335.5)">/</text><text xml:space="preserve" font-family="Helvetica-Light,Helvetica" font-size="32.8" fill="#D1CCBD" transform="matrix(1.00, 0.00, -0.00, -1.00, 215.6, 335.5)">/</text><text xml:space="preserve" font-family="Helvetica-Light,Helvetica" font-size="32.8" fill="#D1CCBD" transform="matrix(1.00, 0.00, -0.00, -1.00, 224.7, 335.5)">g</text><text xml:space="preserve" font-family="Helvetica-Light,Helvetica" font-size="32.8" fill="#D1CCBD" transform="matrix(1.00, 0.00, -0.00, -1.00, 244.7, 335.5)">i</text><text xml:space="preserve" font-family="Helvetica-Light,Helvetica" font-size="32.8" fill="#D1CCBD" transform="matrix(1.00, 0.00, -0.00, -1.00, 252.0, 335.5)">t</text><text xml:space="preserve" font-family="Helvetica-Light,Helvetica" font-size="32.8" fill="#D1CCBD" transform="matrix(1.00, 0.00, -0.00, -1.00, 261.1, 335.5)">h</text><text xml:space="preserve" font-family="Helvetica-Light,Helvetica" font-size="32.8" fill="#D1CCBD" transform="matrix(1.00, 0.00, -0.00, -1.00, 279.3, 335.5)">u</text><text xml:space="preserve" font-family="Helvetica-Light,Helvetica" font-size="32.8" fill="#D1CCBD" transform="matrix(1.00, 0.00, -0.00, -1.00, 297.5, 335.5)">b</text><text xml:space="preserve" font-family="Helvetica-Light,Helvetica" font-size="32.8" fill="#D1CCBD" transform="matrix(1.00, 0.00, -0.00, -1.00, 317.5, 335.5)">.</text><text xml:space="preserve" font-family="Helvetica-Light,Helvetica" font-size="32.8" fill="#D1CCBD" transform="matrix(1.00, 0.00, -0.00, -1.00, 326.6, 335.5)">c</text><text xml:space="preserve" font-family="Helvetica-Light,Helvetica" font-size="32.8" fill="#D1CCBD" transform="matrix(1.00, 0.00, -0.00, -1.00, 344.8, 335.5)">o</text><text xml:space="preserve" font-family="Helvetica-Light,Helvetica" font-size="32.8" fill="#D1CCBD" transform="matrix(1.00, 0.00, -0.00, -1.00, 363.1, 335.5)">m</text><text xml:space="preserve" font-family="Helvetica-Light,Helvetica" font-size="32.8" fill="#D1CCBD" transform="matrix(1.00, 0.00, -0.00, -1.00, 390.3, 335.5)">/</text><text xml:space="preserve" font-family="Helvetica-Light,Helvetica" font-size="32.8" fill="#D1CCBD" transform="matrix(1.00, 0.00, -0.00, -1.00, 399.5, 335.5)">R</text><text xml:space="preserve" font-family="Helvetica-Light,Helvetica" font-size="32.8" fill="#D1CCBD" transform="matrix(1.00, 0.00, -0.00, -1.00, 421.3, 335.5)">a</text><text xml:space="preserve" font-family="Helvetica-Light,Helvetica" font-size="32.8" fill="#D1CCBD" transform="matrix(1.00, 0.00, -0.00, -1.00, 439.5, 335.5)">i</text><text xml:space="preserve" font-family="Helvetica-Light,Helvetica" font-size="32.8" fill="#D1CCBD" transform="matrix(1.00, 0.00, -0.00, -1.00, 446.8, 335.5)">n</text><text xml:space="preserve" font-family="Helvetica-Light,Helvetica" font-size="32.8" fill="#D1CCBD" transform="matrix(1.00, 0.00, -0.00, -1.00, 465.0, 335.5)">B</text><text xml:space="preserve" font-family="Helvetica-Light,Helvetica" font-size="32.8" fill="#D1CCBD" transform="matrix(1.00, 0.00, -0.00, -1.00, 486.9, 335.5)">i</text><text xml:space="preserve" font-family="Helvetica-Light,Helvetica" font-size="32.8" fill="#D1CCBD" transform="matrix(1.00, 0.00, -0.00, -1.00, 494.1, 335.5)">r</text><text xml:space="preserve" font-family="Helvetica-Light,Helvetica" font-size="32.8" fill="#D1CCBD" transform="matrix(1.00, 0.00, -0.00, -1.00, 504.4, 335.5)">d</text><text xml:space="preserve" font-family="Helvetica-Light,Helvetica" font-size="32.8" fill="#D1CCBD" transform="matrix(1.00, 0.00, -0.00, -1.00, 524.5, 335.5)">A</text><text xml:space="preserve" font-family="Helvetica-Light,Helvetica" font-size="32.8" fill="#D1CCBD" transform="matrix(1.00, 0.00, -0.00, -1.00, 546.3, 335.5)">i</text><text xml:space="preserve" font-family="Helvetica-Light,Helvetica" font-size="32.8" fill="#D1CCBD" transform="matrix(1.00, 0.00, -0.00, -1.00, 553.6, 335.5)">/</text><text xml:space="preserve" font-family="Helvetica-Light,Helvetica" font-size="32.8" fill="#D1CCBD" transform="matrix(1.00, 0.00, -0.00, -1.00, 562.7, 335.5)">d</text><text xml:space="preserve" font-family="Helvetica-Light,Helvetica" font-size="32.8" fill="#D1CCBD" transform="matrix(1.00, 0.00, -0.00, -1.00, 582.7, 335.5)">o</text><text xml:space="preserve" font-family="Helvetica-Light,Helvetica" font-size="32.8" fill="#D1CCBD" transform="matrix(1.00, 0.00, -0.00, -1.00, 600.9, 335.5)">c</text><text xml:space="preserve" font-family="Helvetica-Light,Helvetica" font-size="32.8" fill="#D1CCBD" transform="matrix(1.00, 0.00, -0.00, -1.00, 619.1, 335.5)">k</text><text xml:space="preserve" font-family="Helvetica-Light,Helvetica" font-size="32.8" fill="#D1CCBD" transform="matrix(1.00, 0.00, -0.00, -1.00, 635.5, 335.5)">e</text><text xml:space="preserve" font-family="Helvetica-Light,Helvetica" font-size="32.8" fill="#D1CCBD" transform="matrix(1.00, 0.00, -0.00, -1.00, 653.7, 335.5)">r</text><text xml:space="preserve" font-family="Helvetica-Light,Helvetica" font-size="32.8" fill="#D1CCBD" transform="matrix(1.00, 0.00, -0.00, -1.00, 662.8, 335.5)">-</text><text xml:space="preserve" font-family="Helvetica-Light,Helvetica" font-size="32.8" fill="#D1CCBD" transform="matrix(1.00, 0.00, -0.00, -1.00, 673.8, 335.5)">w</text><text xml:space="preserve" font-family="Helvetica-Light,Helvetica" font-size="32.8" fill="#D1CCBD" transform="matrix(1.00, 0.00, -0.00, -1.00, 697.4, 335.5)">o</text><text xml:space="preserve" font-family="Helvetica-Light,Helvetica" font-size="32.8" fill="#D1CCBD" transform="matrix(1.00, 0.00, -0.00, -1.00, 715.6, 335.5)">r</text><text xml:space="preserve" font-family="Helvetica-Light,Helvetica" font-size="32.8" fill="#D1CCBD" transform="matrix(1.00, 0.00, -0.00, -1.00, 726.5, 335.5)">k</text><text xml:space="preserve" font-family="Helvetica-Light,Helvetica" font-size="32.8" fill="#D1CCBD" transform="matrix(1.00, 0.00, -0.00, -1.00, 742.9, 335.5)">s</text><text xml:space="preserve" font-family="Helvetica-Light,Helvetica" font-size="32.8" fill="#D1CCBD" transform="matrix(1.00, 0.00, -0.00, -1.00, 759.3, 335.5)">h</text><text xml:space="preserve" font-family="Helvetica-Light,Helvetica" font-size="32.8" fill="#D1CCBD" transform="matrix(1.00, 0.00, -0.00, -1.00, 777.5, 335.5)">o</text><text xml:space="preserve" font-family="Helvetica-Light,Helvetica" font-size="32.8" fill="#D1CCBD" transform="matrix(1.00, 0.00, -0.00, -1.00, 795.7, 335.5)">p</text><text xml:space="preserve" font-family="Helvetica-Light,Helvetica" font-size="32.8" fill="#D1CCBD" transform="matrix(1.00, 0.00, -0.00, -1.00, 815.7, 335.5)">/</text><text xml:space="preserve" font-family="Helvetica-Light,Helvetica" font-size="32.8" fill="#D1CCBD" transform="matrix(1.00, 0.00, -0.00, -1.00, 824.8, 335.5)">b</text><text xml:space="preserve" font-family="Helvetica-Light,Helvetica" font-size="32.8" fill="#D1CCBD" transform="matrix(1.00, 0.00, -0.00, -1.00, 844.9, 335.5)">l</text><text xml:space="preserve" font-family="Helvetica-Light,Helvetica" font-size="32.8" fill="#D1CCBD" transform="matrix(1.00, 0.00, -0.00, -1.00, 852.1, 335.5)">o</text><text xml:space="preserve" font-family="Helvetica-Light,Helvetica" font-size="32.8" fill="#D1CCBD" transform="matrix(1.00, 0.00, -0.00, -1.00, 870.3, 335.5)">b</text><text xml:space="preserve" font-family="Helvetica-Light,Helvetica" font-size="32.8" fill="#D1CCBD" transform="matrix(1.00, 0.00, -0.00, -1.00, 890.4, 335.5)">/</text><text xml:space="preserve" font-family="Helvetica-Light,Helvetica" font-size="32.8" fill="#D1CCBD" transform="matrix(1.00, 0.00, -0.00, -1.00, 278.7, 295.5)">m</text><text xml:space="preserve" font-family="Helvetica-Light,Helvetica" font-size="32.8" fill="#D1CCBD" transform="matrix(1.00, 0.00, -0.00, -1.00, 306.0, 295.5)">a</text><text xml:space="preserve" font-family="Helvetica-Light,Helvetica" font-size="32.8" fill="#D1CCBD" transform="matrix(1.00, 0.00, -0.00, -1.00, 324.2, 295.5)">s</text><text xml:space="preserve" font-family="Helvetica-Light,Helvetica" font-size="32.8" fill="#D1CCBD" transform="matrix(1.00, 0.00, -0.00, -1.00, 340.6, 295.5)">t</text><text xml:space="preserve" font-family="Helvetica-Light,Helvetica" font-size="32.8" fill="#D1CCBD" transform="matrix(1.00, 0.00, -0.00, -1.00, 349.7, 295.5)">e</text><text xml:space="preserve" font-family="Helvetica-Light,Helvetica" font-size="32.8" fill="#D1CCBD" transform="matrix(1.00, 0.00, -0.00, -1.00, 367.9, 295.5)">r</text><text xml:space="preserve" font-family="Helvetica-Light,Helvetica" font-size="32.8" fill="#D1CCBD" transform="matrix(1.00, 0.00, -0.00, -1.00, 378.8, 295.5)">/</text><text xml:space="preserve" font-family="Helvetica-Light,Helvetica" font-size="32.8" fill="#D1CCBD" transform="matrix(1.00, 0.00, -0.00, -1.00, 387.9, 295.5)">e</text><text xml:space="preserve" font-family="Helvetica-Light,Helvetica" font-size="32.8" fill="#D1CCBD" transform="matrix(1.00, 0.00, -0.00, -1.00, 406.1, 295.5)">x</text><text xml:space="preserve" font-family="Helvetica-Light,Helvetica" font-size="32.8" fill="#D1CCBD" transform="matrix(1.00, 0.00, -0.00, -1.00, 422.5, 295.5)">e</text><text xml:space="preserve" font-family="Helvetica-Light,Helvetica" font-size="32.8" fill="#D1CCBD" transform="matrix(1.00, 0.00, -0.00, -1.00, 440.7, 295.5)">r</text><text xml:space="preserve" font-family="Helvetica-Light,Helvetica" font-size="32.8" fill="#D1CCBD" transform="matrix(1.00, 0.00, -0.00, -1.00, 451.0, 295.5)">c</text><text xml:space="preserve" font-family="Helvetica-Light,Helvetica" font-size="32.8" fill="#D1CCBD" transform="matrix(1.00, 0.00, -0.00, -1.00, 469.2, 295.5)">i</text><text xml:space="preserve" font-family="Helvetica-Light,Helvetica" font-size="32.8" fill="#D1CCBD" transform="matrix(1.00, 0.00, -0.00, -1.00, 476.5, 295.5)">s</text><text xml:space="preserve" font-family="Helvetica-Light,Helvetica" font-size="32.8" fill="#D1CCBD" transform="matrix(1.00, 0.00, -0.00, -1.00, 492.9, 295.5)">e</text><text xml:space="preserve" font-family="Helvetica-Light,Helvetica" font-size="32.8" fill="#D1CCBD" transform="matrix(1.00, 0.00, -0.00, -1.00, 511.1, 295.5)">s</text><text xml:space="preserve" font-family="Helvetica-Light,Helvetica" font-size="32.8" fill="#D1CCBD" transform="matrix(1.00, 0.00, -0.00, -1.00, 527.5, 295.5)">/</text><text xml:space="preserve" font-family="Helvetica-Light,Helvetica" font-size="32.8" fill="#D1CCBD" transform="matrix(1.00, 0.00, -0.00, -1.00, 536.6, 295.5)">e</text><text xml:space="preserve" font-family="Helvetica-Light,Helvetica" font-size="32.8" fill="#D1CCBD" transform="matrix(1.00, 0.00, -0.00, -1.00, 554.8, 295.5)">x</text><text xml:space="preserve" font-family="Helvetica-Light,Helvetica" font-size="32.8" fill="#D1CCBD" transform="matrix(1.00, 0.00, -0.00, -1.00, 571.2, 295.5)">e</text><text xml:space="preserve" font-family="Helvetica-Light,Helvetica" font-size="32.8" fill="#D1CCBD" transform="matrix(1.00, 0.00, -0.00, -1.00, 589.4, 295.5)">r</text><text xml:space="preserve" font-family="Helvetica-Light,Helvetica" font-size="32.8" fill="#D1CCBD" transform="matrix(1.00, 0.00, -0.00, -1.00, 599.7, 295.5)">c</text><text xml:space="preserve" font-family="Helvetica-Light,Helvetica" font-size="32.8" fill="#D1CCBD" transform="matrix(1.00, 0.00, -0.00, -1.00, 617.9, 295.5)">i</text><text xml:space="preserve" font-family="Helvetica-Light,Helvetica" font-size="32.8" fill="#D1CCBD" transform="matrix(1.00, 0.00, -0.00, -1.00, 625.2, 295.5)">s</text><text xml:space="preserve" font-family="Helvetica-Light,Helvetica" font-size="32.8" fill="#D1CCBD" transform="matrix(1.00, 0.00, -0.00, -1.00, 641.6, 295.5)">e</text><text xml:space="preserve" font-family="Helvetica-Light,Helvetica" font-size="32.8" fill="#D1CCBD" transform="matrix(1.00, 0.00, -0.00, -1.00, 659.8, 295.5)">-</text><text xml:space="preserve" font-family="Helvetica-Light,Helvetica" font-size="32.8" fill="#D1CCBD" transform="matrix(1.00, 0.00, -0.00, -1.00, 670.7, 295.5)">9</text><text xml:space="preserve" font-family="Helvetica-Light,Helvetica" font-size="32.8" fill="#D1CCBD" transform="matrix(1.00, 0.00, -0.00, -1.00, 688.9, 295.5)">.</text><text xml:space="preserve" font-family="Helvetica-Light,Helvetica" font-size="32.8" fill="#D1CCBD" transform="matrix(1.00, 0.00, -0.00, -1.00, 698.0, 295.5)">m</text><text xml:space="preserve" font-family="Helvetica-Light,Helvetica" font-size="32.8" fill="#D1CCBD" transform="matrix(1.00, 0.00, -0.00, -1.00, 725.3, 295.5)">d</text></g></svg>