<?xml version="1.0" encoding="UTF-8" standalone="no"?><svg xmlns="http://www.w3.org/2000/svg" xmlns:xlink="http://www.w3.org/1999/xlink" clip-rule="evenodd" stroke-miterlimit="10" viewBox="0 0 1024 768"><desc>SVG generated by Keynote</desc><defs></defs><g transform="matrix(1.00, 0.00, -0.00, -1.00, 0.0, 768.0)"><path d="M 0.0 768.0 L 1024.0 768.0 L 1024.0 0.0 L 0.0 0.0 Z M 0.0 768.0 " fill="#081E2B"></path><image xlink:href="../../3BC8020D-1F36-4539-B9AC-02F2FA89CB7E/assets/7F4F24FAB2BE4AECA15887D26A47A79B.png" width="1830.00" height="964.00" transform="matrix(0.08, 0.00, -0.00, -0.08, 825.0, 118.0)"></image><text xml:space="preserve" font-family="SourceSansPro-Light,Source Sans Pro" font-size="96.0" fill="#D1CCBD" transform="matrix(1.00, 0.00, -0.00, -1.00, 330.8, 603.8)">S</text><text xml:space="preserve" font-family="SourceSansPro-Light,Source Sans Pro" font-size="96.0" fill="#D1CCBD" transform="matrix(1.00, 0.00, -0.00, -1.00, 380.9, 603.8)">c</text><text xml:space="preserve" font-family="SourceSansPro-Light,Source Sans Pro" font-size="96.0" fill="#D1CCBD" transform="matrix(1.00, 0.00, -0.00, -1.00, 424.0, 603.8)">h</text><text xml:space="preserve" font-family="SourceSansPro-Light,Source Sans Pro" font-size="96.0" fill="#D1CCBD" transform="matrix(1.00, 0.00, -0.00, -1.00, 474.7, 603.8)">e</text><text xml:space="preserve" font-family="SourceSansPro-Light,Source Sans Pro" font-size="96.0" fill="#D1CCBD" transform="matrix(1.00, 0.00, -0.00, -1.00, 521.0, 603.8)">d</text><text xml:space="preserve" font-family="SourceSansPro-Light,Source Sans Pro" font-size="96.0" fill="#D1CCBD" transform="matrix(1.00, 0.00, -0.00, -1.00, 573.2, 603.8)">u</text><text xml:space="preserve" font-family="SourceSansPro-Light,Source Sans Pro" font-size="96.0" fill="#D1CCBD" transform="matrix(1.00, 0.00, -0.00, -1.00, 624.0, 603.8)">l</text><text xml:space="preserve" font-family="SourceSansPro-Light,Source Sans Pro" font-size="96.0" fill="#D1CCBD" transform="matrix(1.00, 0.00, -0.00, -1.00, 646.8, 603.8)">e</text><text xml:space="preserve" font-family="Helvetica-Light,Helvetica" font-size="42.0" fill="#D1CCBD" transform="matrix(1.00, 0.00, -0.00, -1.00, 104.0, 478.7)">1</text><text xml:space="preserve" font-family="Helvetica-Light,Helvetica" font-size="42.0" fill="#D1CCBD" transform="matrix(1.00, 0.00, -0.00, -1.00, 127.4, 478.7)">0</text><text xml:space="preserve" font-family="Helvetica-Light,Helvetica" font-size="42.0" fill="#D1CCBD" transform="matrix(1.00, 0.00, -0.00, -1.00, 150.7, 478.7)">:</text><text xml:space="preserve" font-family="Helvetica-Light,Helvetica" font-size="42.0" fill="#D1CCBD" transform="matrix(1.00, 0.00, -0.00, -1.00, 162.4, 478.7)">0</text><text xml:space="preserve" font-family="Helvetica-Light,Helvetica" font-size="42.0" fill="#D1CCBD" transform="matrix(1.00, 0.00, -0.00, -1.00, 185.7, 478.7)">0</text><text xml:space="preserve" font-family="Helvetica-Light,Helvetica" font-size="42.0" fill="#D1CCBD" transform="matrix(1.00, 0.00, -0.00, -1.00, 209.1, 478.7)"> </text><text xml:space="preserve" font-family="Helvetica-Light,Helvetica" font-size="42.0" fill="#D1CCBD" transform="matrix(1.00, 0.00, -0.00, -1.00, 220.8, 478.7)">-</text><text xml:space="preserve" font-family="Helvetica-Light,Helvetica" font-size="42.0" fill="#D1CCBD" transform="matrix(1.00, 0.00, -0.00, -1.00, 234.7, 478.7)"> </text><text xml:space="preserve" font-family="Helvetica-Light,Helvetica" font-size="42.0" fill="#D1CCBD" transform="matrix(1.00, 0.00, -0.00, -1.00, 246.4, 478.7)">1</text><text xml:space="preserve" font-family="Helvetica-Light,Helvetica" font-size="42.0" fill="#D1CCBD" transform="matrix(1.00, 0.00, -0.00, -1.00, 269.8, 478.7)">1</text><text xml:space="preserve" font-family="Helvetica-Light,Helvetica" font-size="42.0" fill="#D1CCBD" transform="matrix(1.00, 0.00, -0.00, -1.00, 293.1, 478.7)">:</text><text xml:space="preserve" font-family="Helvetica-Light,Helvetica" font-size="42.0" fill="#D1CCBD" transform="matrix(1.00, 0.00, -0.00, -1.00, 304.8, 478.7)">0</text><text xml:space="preserve" font-family="Helvetica-Light,Helvetica" font-size="42.0" fill="#D1CCBD" transform="matrix(1.00, 0.00, -0.00, -1.00, 328.2, 478.7)">0</text><text xml:space="preserve" font-family="Helvetica-Light,Helvetica" font-size="42.0" fill="#D1CCBD" transform="matrix(1.00, 0.00, -0.00, -1.00, 351.5, 478.7)"> </text><text xml:space="preserve" font-family="Helvetica-Light,Helvetica" font-size="42.0" fill="#D1CCBD" transform="matrix(1.00, 0.00, -0.00, -1.00, 363.2, 478.7)">I</text><text xml:space="preserve" font-family="Helvetica-Light,Helvetica" font-size="42.0" fill="#D1CCBD" transform="matrix(1.00, 0.00, -0.00, -1.00, 374.9, 478.7)">n</text><text xml:space="preserve" font-family="Helvetica-Light,Helvetica" font-size="42.0" fill="#D1CCBD" transform="matrix(1.00, 0.00, -0.00, -1.00, 398.2, 478.7)">t</text><text xml:space="preserve" font-family="Helvetica-Light,Helvetica" font-size="42.0" fill="#D1CCBD" transform="matrix(1.00, 0.00, -0.00, -1.00, 409.9, 478.7)">r</text><text xml:space="preserve" font-family="Helvetica-Light,Helvetica" font-size="42.0" fill="#D1CCBD" transform="matrix(1.00, 0.00, -0.00, -1.00, 423.1, 478.7)">o</text><text xml:space="preserve" font-family="Helvetica-Light,Helvetica" font-size="42.0" fill="#D1CCBD" transform="matrix(1.00, 0.00, -0.00, -1.00, 446.5, 478.7)">d</text><text xml:space="preserve" font-family="Helvetica-Light,Helvetica" font-size="42.0" fill="#D1CCBD" transform="matrix(1.00, 0.00, -0.00, -1.00, 472.1, 478.7)">u</text><text xml:space="preserve" font-family="Helvetica-Light,Helvetica" font-size="42.0" fill="#D1CCBD" transform="matrix(1.00, 0.00, -0.00, -1.00, 495.5, 478.7)">c</text><text xml:space="preserve" font-family="Helvetica-Light,Helvetica" font-size="42.0" fill="#D1CCBD" transform="matrix(1.00, 0.00, -0.00, -1.00, 518.8, 478.7)">t</text><text xml:space="preserve" font-family="Helvetica-Light,Helvetica" font-size="42.0" fill="#D1CCBD" transform="matrix(1.00, 0.00, -0.00, -1.00, 530.5, 478.7)">i</text><text xml:space="preserve" font-family="Helvetica-Light,Helvetica" font-size="42.0" fill="#D1CCBD" transform="matrix(1.00, 0.00, -0.00, -1.00, 539.8, 478.7)">o</text><text xml:space="preserve" font-family="Helvetica-Light,Helvetica" font-size="42.0" fill="#D1CCBD" transform="matrix(1.00, 0.00, -0.00, -1.00, 563.2, 478.7)">n</text><text xml:space="preserve" font-family="Helvetica-Light,Helvetica" font-size="42.0" fill="#D1CCBD" transform="matrix(1.00, 0.00, -0.00, -1.00, 586.5, 478.7)"> </text><text xml:space="preserve" font-family="Helvetica-Light,Helvetica" font-size="42.0" fill="#D1CCBD" transform="matrix(1.00, 0.00, -0.00, -1.00, 598.2, 478.7)">t</text><text xml:space="preserve" font-family="Helvetica-Light,Helvetica" font-size="42.0" fill="#D1CCBD" transform="matrix(1.00, 0.00, -0.00, -1.00, 609.9, 478.7)">o</text><text xml:space="preserve" font-family="Helvetica-Light,Helvetica" font-size="42.0" fill="#D1CCBD" transform="matrix(1.00, 0.00, -0.00, -1.00, 633.2, 478.7)"> </text><text xml:space="preserve" font-family="Helvetica-Light,Helvetica" font-size="42.0" fill="#D1CCBD" transform="matrix(1.00, 0.00, -0.00, -1.00, 644.9, 478.7)">D</text><text xml:space="preserve" font-family="Helvetica-Light,Helvetica" font-size="42.0" fill="#D1CCBD" transform="matrix(1.00, 0.00, -0.00, -1.00, 675.2, 478.7)">o</text><text xml:space="preserve" font-family="Helvetica-Light,Helvetica" font-size="42.0" fill="#D1CCBD" transform="matrix(1.00, 0.00, -0.00, -1.00, 698.6, 478.7)">c</text><text xml:space="preserve" font-family="Helvetica-Light,Helvetica" font-size="42.0" fill="#D1CCBD" transform="matrix(1.00, 0.00, -0.00, -1.00, 721.9, 478.7)">k</text><text xml:space="preserve" font-family="Helvetica-Light,Helvetica" font-size="42.0" fill="#D1CCBD" transform="matrix(1.00, 0.00, -0.00, -1.00, 742.9, 478.7)">e</text><text xml:space="preserve" font-family="Helvetica-Light,Helvetica" font-size="42.0" fill="#D1CCBD" transform="matrix(1.00, 0.00, -0.00, -1.00, 766.3, 478.7)">r</text><text xml:space="preserve" font-family="Helvetica-Light,Helvetica" font-size="42.0" fill="#D1CCBD" transform="matrix(1.00, 0.00, -0.00, -1.00, 780.3, 478.7)"> </text><text xml:space="preserve" font-family="Helvetica-Light,Helvetica" font-size="42.0" fill="#D1CCBD" transform="matrix(1.00, 0.00, -0.00, -1.00, 104.0, 428.7)">1</text><text xml:space="preserve" font-family="Helvetica-Light,Helvetica" font-size="42.0" fill="#D1CCBD" transform="matrix(1.00, 0.00, -0.00, -1.00, 127.4, 428.7)">1</text><text xml:space="preserve" font-family="Helvetica-Light,Helvetica" font-size="42.0" fill="#D1CCBD" transform="matrix(1.00, 0.00, -0.00, -1.00, 150.7, 428.7)">:</text><text xml:space="preserve" font-family="Helvetica-Light,Helvetica" font-size="42.0" fill="#D1CCBD" transform="matrix(1.00, 0.00, -0.00, -1.00, 162.4, 428.7)">0</text><text xml:space="preserve" font-family="Helvetica-Light,Helvetica" font-size="42.0" fill="#D1CCBD" transform="matrix(1.00, 0.00, -0.00, -1.00, 185.7, 428.7)">0</text><text xml:space="preserve" font-family="Helvetica-Light,Helvetica" font-size="42.0" fill="#D1CCBD" transform="matrix(1.00, 0.00, -0.00, -1.00, 209.1, 428.7)"> </text><text xml:space="preserve" font-family="Helvetica-Light,Helvetica" font-size="42.0" fill="#D1CCBD" transform="matrix(1.00, 0.00, -0.00, -1.00, 220.8, 428.7)">-</text><text xml:space="preserve" font-family="Helvetica-Light,Helvetica" font-size="42.0" fill="#D1CCBD" transform="matrix(1.00, 0.00, -0.00, -1.00, 234.7, 428.7)"> </text><text xml:space="preserve" font-family="Helvetica-Light,Helvetica" font-size="42.0" fill="#D1CCBD" transform="matrix(1.00, 0.00, -0.00, -1.00, 246.4, 428.7)">1</text><text xml:space="preserve" font-family="Helvetica-Light,Helvetica" font-size="42.0" fill="#D1CCBD" transform="matrix(1.00, 0.00, -0.00, -1.00, 269.8, 428.7)">1</text><text xml:space="preserve" font-family="Helvetica-Light,Helvetica" font-size="42.0" fill="#D1CCBD" transform="matrix(1.00, 0.00, -0.00, -1.00, 293.1, 428.7)">:</text><text xml:space="preserve" font-family="Helvetica-Light,Helvetica" font-size="42.0" fill="#D1CCBD" transform="matrix(1.00, 0.00, -0.00, -1.00, 304.8, 428.7)">1</text><text xml:space="preserve" font-family="Helvetica-Light,Helvetica" font-size="42.0" fill="#D1CCBD" transform="matrix(1.00, 0.00, -0.00, -1.00, 328.2, 428.7)">5</text><text xml:space="preserve" font-family="Helvetica-Light,Helvetica" font-size="42.0" fill="#D1CCBD" transform="matrix(1.00, 0.00, -0.00, -1.00, 351.5, 428.7)"> </text><text xml:space="preserve" font-family="Helvetica-Light,Helvetica" font-size="42.0" fill="#D1CCBD" transform="matrix(1.00, 0.00, -0.00, -1.00, 363.2, 428.7)">C</text><text xml:space="preserve" font-family="Helvetica-Light,Helvetica" font-size="42.0" fill="#D1CCBD" transform="matrix(1.00, 0.00, -0.00, -1.00, 393.5, 428.7)">o</text><text xml:space="preserve" font-family="Helvetica-Light,Helvetica" font-size="42.0" fill="#D1CCBD" transform="matrix(1.00, 0.00, -0.00, -1.00, 416.9, 428.7)">f</text><text xml:space="preserve" font-family="Helvetica-Light,Helvetica" font-size="42.0" fill="#D1CCBD" transform="matrix(1.00, 0.00, -0.00, -1.00, 427.8, 428.7)">f</text><text xml:space="preserve" font-family="Helvetica-Light,Helvetica" font-size="42.0" fill="#D1CCBD" transform="matrix(1.00, 0.00, -0.00, -1.00, 439.5, 428.7)">e</text><text xml:space="preserve" font-family="Helvetica-Light,Helvetica" font-size="42.0" fill="#D1CCBD" transform="matrix(1.00, 0.00, -0.00, -1.00, 462.8, 428.7)">e</text><text xml:space="preserve" font-family="Helvetica-Light,Helvetica" font-size="42.0" fill="#D1CCBD" transform="matrix(1.00, 0.00, -0.00, -1.00, 486.2, 428.7)"> </text><text xml:space="preserve" font-family="Helvetica-Light,Helvetica" font-size="42.0" fill="#D1CCBD" transform="matrix(1.00, 0.00, -0.00, -1.00, 497.8, 428.7)">B</text><text xml:space="preserve" font-family="Helvetica-Light,Helvetica" font-size="42.0" fill="#D1CCBD" transform="matrix(1.00, 0.00, -0.00, -1.00, 525.8, 428.7)">r</text><text xml:space="preserve" font-family="Helvetica-Light,Helvetica" font-size="42.0" fill="#D1CCBD" transform="matrix(1.00, 0.00, -0.00, -1.00, 539.1, 428.7)">e</text><text xml:space="preserve" font-family="Helvetica-Light,Helvetica" font-size="42.0" fill="#D1CCBD" transform="matrix(1.00, 0.00, -0.00, -1.00, 562.4, 428.7)">a</text><text xml:space="preserve" font-family="Helvetica-Light,Helvetica" font-size="42.0" fill="#D1CCBD" transform="matrix(1.00, 0.00, -0.00, -1.00, 585.8, 428.7)">k</text><text xml:space="preserve" font-family="Helvetica-Light,Helvetica" font-size="42.0" fill="#D1CCBD" transform="matrix(1.00, 0.00, -0.00, -1.00, 606.8, 428.7)"> </text><text xml:space="preserve" font-family="Helvetica-Light,Helvetica" font-size="42.0" fill="#D1CCBD" transform="matrix(1.00, 0.00, -0.00, -1.00, 104.0, 378.7)">1</text><text xml:space="preserve" font-family="Helvetica-Light,Helvetica" font-size="42.0" fill="#D1CCBD" transform="matrix(1.00, 0.00, -0.00, -1.00, 127.4, 378.7)">1</text><text xml:space="preserve" font-family="Helvetica-Light,Helvetica" font-size="42.0" fill="#D1CCBD" transform="matrix(1.00, 0.00, -0.00, -1.00, 150.7, 378.7)">:</text><text xml:space="preserve" font-family="Helvetica-Light,Helvetica" font-size="42.0" fill="#D1CCBD" transform="matrix(1.00, 0.00, -0.00, -1.00, 162.4, 378.7)">1</text><text xml:space="preserve" font-family="Helvetica-Light,Helvetica" font-size="42.0" fill="#D1CCBD" transform="matrix(1.00, 0.00, -0.00, -1.00, 185.7, 378.7)">5</text><text xml:space="preserve" font-family="Helvetica-Light,Helvetica" font-size="42.0" fill="#D1CCBD" transform="matrix(1.00, 0.00, -0.00, -1.00, 209.1, 378.7)"> </text><text xml:space="preserve" font-family="Helvetica-Light,Helvetica" font-size="42.0" fill="#D1CCBD" transform="matrix(1.00, 0.00, -0.00, -1.00, 220.8, 378.7)">-</text><text xml:space="preserve" font-family="Helvetica-Light,Helvetica" font-size="42.0" fill="#D1CCBD" transform="matrix(1.00, 0.00, -0.00, -1.00, 234.7, 378.7)"> </text><text xml:space="preserve" font-family="Helvetica-Light,Helvetica" font-size="42.0" fill="#D1CCBD" transform="matrix(1.00, 0.00, -0.00, -1.00, 246.4, 378.7)">1</text><text xml:space="preserve" font-family="Helvetica-Light,Helvetica" font-size="42.0" fill="#D1CCBD" transform="matrix(1.00, 0.00, -0.00, -1.00, 269.8, 378.7)">2</text><text xml:space="preserve" font-family="Helvetica-Light,Helvetica" font-size="42.0" fill="#D1CCBD" transform="matrix(1.00, 0.00, -0.00, -1.00, 293.1, 378.7)">:</text><text xml:space="preserve" font-family="Helvetica-Light,Helvetica" font-size="42.0" fill="#D1CCBD" transform="matrix(1.00, 0.00, -0.00, -1.00, 304.8, 378.7)">3</text><text xml:space="preserve" font-family="Helvetica-Light,Helvetica" font-size="42.0" fill="#D1CCBD" transform="matrix(1.00, 0.00, -0.00, -1.00, 328.2, 378.7)">0</text><text xml:space="preserve" font-family="Helvetica-Light,Helvetica" font-size="42.0" fill="#D1CCBD" transform="matrix(1.00, 0.00, -0.00, -1.00, 351.5, 378.7)"> </text><text xml:space="preserve" font-family="Helvetica-Light,Helvetica" font-size="42.0" fill="#D1CCBD" transform="matrix(1.00, 0.00, -0.00, -1.00, 363.2, 378.7)">B</text><text xml:space="preserve" font-family="Helvetica-Light,Helvetica" font-size="42.0" fill="#D1CCBD" transform="matrix(1.00, 0.00, -0.00, -1.00, 391.2, 378.7)">a</text><text xml:space="preserve" font-family="Helvetica-Light,Helvetica" font-size="42.0" fill="#D1CCBD" transform="matrix(1.00, 0.00, -0.00, -1.00, 414.5, 378.7)">s</text><text xml:space="preserve" font-family="Helvetica-Light,Helvetica" font-size="42.0" fill="#D1CCBD" transform="matrix(1.00, 0.00, -0.00, -1.00, 435.5, 378.7)">i</text><text xml:space="preserve" font-family="Helvetica-Light,Helvetica" font-size="42.0" fill="#D1CCBD" transform="matrix(1.00, 0.00, -0.00, -1.00, 444.9, 378.7)">c</text><text xml:space="preserve" font-family="Helvetica-Light,Helvetica" font-size="42.0" fill="#D1CCBD" transform="matrix(1.00, 0.00, -0.00, -1.00, 468.2, 378.7)">s</text><text xml:space="preserve" font-family="Helvetica-Light,Helvetica" font-size="42.0" fill="#D1CCBD" transform="matrix(1.00, 0.00, -0.00, -1.00, 489.2, 378.7)"> </text><text xml:space="preserve" font-family="Helvetica-Light,Helvetica" font-size="42.0" fill="#D1CCBD" transform="matrix(1.00, 0.00, -0.00, -1.00, 500.9, 378.7)">o</text><text xml:space="preserve" font-family="Helvetica-Light,Helvetica" font-size="42.0" fill="#D1CCBD" transform="matrix(1.00, 0.00, -0.00, -1.00, 524.3, 378.7)">f</text><text xml:space="preserve" font-family="Helvetica-Light,Helvetica" font-size="42.0" fill="#D1CCBD" transform="matrix(1.00, 0.00, -0.00, -1.00, 535.9, 378.7)"> </text><text xml:space="preserve" font-family="Helvetica-Light,Helvetica" font-size="42.0" fill="#D1CCBD" transform="matrix(1.00, 0.00, -0.00, -1.00, 547.6, 378.7)">t</text><text xml:space="preserve" font-family="Helvetica-Light,Helvetica" font-size="42.0" fill="#D1CCBD" transform="matrix(1.00, 0.00, -0.00, -1.00, 559.3, 378.7)">h</text><text xml:space="preserve" font-family="Helvetica-Light,Helvetica" font-size="42.0" fill="#D1CCBD" transform="matrix(1.00, 0.00, -0.00, -1.00, 582.6, 378.7)">e</text><text xml:space="preserve" font-family="Helvetica-Light,Helvetica" font-size="42.0" fill="#D1CCBD" transform="matrix(1.00, 0.00, -0.00, -1.00, 606.0, 378.7)"> </text><text xml:space="preserve" font-family="Helvetica-Light,Helvetica" font-size="42.0" fill="#D1CCBD" transform="matrix(1.00, 0.00, -0.00, -1.00, 617.7, 378.7)">D</text><text xml:space="preserve" font-family="Helvetica-Light,Helvetica" font-size="42.0" fill="#D1CCBD" transform="matrix(1.00, 0.00, -0.00, -1.00, 648.0, 378.7)">o</text><text xml:space="preserve" font-family="Helvetica-Light,Helvetica" font-size="42.0" fill="#D1CCBD" transform="matrix(1.00, 0.00, -0.00, -1.00, 671.3, 378.7)">c</text><text xml:space="preserve" font-family="Helvetica-Light,Helvetica" font-size="42.0" fill="#D1CCBD" transform="matrix(1.00, 0.00, -0.00, -1.00, 694.7, 378.7)">k</text><text xml:space="preserve" font-family="Helvetica-Light,Helvetica" font-size="42.0" fill="#D1CCBD" transform="matrix(1.00, 0.00, -0.00, -1.00, 715.7, 378.7)">e</text><text xml:space="preserve" font-family="Helvetica-Light,Helvetica" font-size="42.0" fill="#D1CCBD" transform="matrix(1.00, 0.00, -0.00, -1.00, 739.0, 378.7)">r</text><text xml:space="preserve" font-family="Helvetica-Light,Helvetica" font-size="42.0" fill="#D1CCBD" transform="matrix(1.00, 0.00, -0.00, -1.00, 753.8, 378.7)">ﬁ</text><text xml:space="preserve" font-family="Helvetica-Light,Helvetica" font-size="42.0" fill="#D1CCBD" transform="matrix(1.00, 0.00, -0.00, -1.00, 774.8, 378.7)">l</text><text xml:space="preserve" font-family="Helvetica-Light,Helvetica" font-size="42.0" fill="#D1CCBD" transform="matrix(1.00, 0.00, -0.00, -1.00, 784.1, 378.7)">e</text><text xml:space="preserve" font-family="Helvetica-Light,Helvetica" font-size="42.0" fill="#D1CCBD" transform="matrix(1.00, 0.00, -0.00, -1.00, 807.5, 378.7)"> </text><text xml:space="preserve" font-family="Helvetica-Light,Helvetica" font-size="42.0" fill="#D1CCBD" transform="matrix(1.00, 0.00, -0.00, -1.00, 104.0, 328.7)">1</text><text xml:space="preserve" font-family="Helvetica-Light,Helvetica" font-size="42.0" fill="#D1CCBD" transform="matrix(1.00, 0.00, -0.00, -1.00, 127.4, 328.7)">2</text><text xml:space="preserve" font-family="Helvetica-Light,Helvetica" font-size="42.0" fill="#D1CCBD" transform="matrix(1.00, 0.00, -0.00, -1.00, 150.7, 328.7)">:</text><text xml:space="preserve" font-family="Helvetica-Light,Helvetica" font-size="42.0" fill="#D1CCBD" transform="matrix(1.00, 0.00, -0.00, -1.00, 162.4, 328.7)">3</text><text xml:space="preserve" font-family="Helvetica-Light,Helvetica" font-size="42.0" fill="#D1CCBD" transform="matrix(1.00, 0.00, -0.00, -1.00, 185.7, 328.7)">0</text><text xml:space="preserve" font-family="Helvetica-Light,Helvetica" font-size="42.0" fill="#D1CCBD" transform="matrix(1.00, 0.00, -0.00, -1.00, 209.1, 328.7)"> </text><text xml:space="preserve" font-family="Helvetica-Light,Helvetica" font-size="42.0" fill="#D1CCBD" transform="matrix(1.00, 0.00, -0.00, -1.00, 220.8, 328.7)">-</text><text xml:space="preserve" font-family="Helvetica-Light,Helvetica" font-size="42.0" fill="#D1CCBD" transform="matrix(1.00, 0.00, -0.00, -1.00, 234.7, 328.7)"> </text><text xml:space="preserve" font-family="Helvetica-Light,Helvetica" font-size="42.0" fill="#D1CCBD" transform="matrix(1.00, 0.00, -0.00, -1.00, 246.4, 328.7)">1</text><text xml:space="preserve" font-family="Helvetica-Light,Helvetica" font-size="42.0" fill="#D1CCBD" transform="matrix(1.00, 0.00, -0.00, -1.00, 269.8, 328.7)">3</text><text xml:space="preserve" font-family="Helvetica-Light,Helvetica" font-size="42.0" fill="#D1CCBD" transform="matrix(1.00, 0.00, -0.00, -1.00, 293.1, 328.7)">:</text><text xml:space="preserve" font-family="Helvetica-Light,Helvetica" font-size="42.0" fill="#D1CCBD" transform="matrix(1.00, 0.00, -0.00, -1.00, 304.8, 328.7)">3</text><text xml:space="preserve" font-family="Helvetica-Light,Helvetica" font-size="42.0" fill="#D1CCBD" transform="matrix(1.00, 0.00, -0.00, -1.00, 328.2, 328.7)">0</text><text xml:space="preserve" font-family="Helvetica-Light,Helvetica" font-size="42.0" fill="#D1CCBD" transform="matrix(1.00, 0.00, -0.00, -1.00, 351.5, 328.7)"> </text><text xml:space="preserve" font-family="Helvetica-Light,Helvetica" font-size="42.0" fill="#D1CCBD" transform="matrix(1.00, 0.00, -0.00, -1.00, 363.2, 328.7)">L</text><text xml:space="preserve" font-family="Helvetica-Light,Helvetica" font-size="42.0" fill="#D1CCBD" transform="matrix(1.00, 0.00, -0.00, -1.00, 386.5, 328.7)">u</text><text xml:space="preserve" font-family="Helvetica-Light,Helvetica" font-size="42.0" fill="#D1CCBD" transform="matrix(1.00, 0.00, -0.00, -1.00, 409.9, 328.7)">n</text><text xml:space="preserve" font-family="Helvetica-Light,Helvetica" font-size="42.0" fill="#D1CCBD" transform="matrix(1.00, 0.00, -0.00, -1.00, 433.2, 328.7)">c</text><text xml:space="preserve" font-family="Helvetica-Light,Helvetica" font-size="42.0" fill="#D1CCBD" transform="matrix(1.00, 0.00, -0.00, -1.00, 456.6, 328.7)">h</text><text xml:space="preserve" font-family="Helvetica-Light,Helvetica" font-size="42.0" fill="#D1CCBD" transform="matrix(1.00, 0.00, -0.00, -1.00, 479.9, 328.7)"> </text><text xml:space="preserve" font-family="Helvetica-Light,Helvetica" font-size="42.0" fill="#D1CCBD" transform="matrix(1.00, 0.00, -0.00, -1.00, 104.0, 278.7)">1</text><text xml:space="preserve" font-family="Helvetica-Light,Helvetica" font-size="42.0" fill="#D1CCBD" transform="matrix(1.00, 0.00, -0.00, -1.00, 127.4, 278.7)">3</text><text xml:space="preserve" font-family="Helvetica-Light,Helvetica" font-size="42.0" fill="#D1CCBD" transform="matrix(1.00, 0.00, -0.00, -1.00, 150.7, 278.7)">:</text><text xml:space="preserve" font-family="Helvetica-Light,Helvetica" font-size="42.0" fill="#D1CCBD" transform="matrix(1.00, 0.00, -0.00, -1.00, 162.4, 278.7)">3</text><text xml:space="preserve" font-family="Helvetica-Light,Helvetica" font-size="42.0" fill="#D1CCBD" transform="matrix(1.00, 0.00, -0.00, -1.00, 185.7, 278.7)">0</text><text xml:space="preserve" font-family="Helvetica-Light,Helvetica" font-size="42.0" fill="#D1CCBD" transform="matrix(1.00, 0.00, -0.00, -1.00, 209.1, 278.7)"> </text><text xml:space="preserve" font-family="Helvetica-Light,Helvetica" font-size="42.0" fill="#D1CCBD" transform="matrix(1.00, 0.00, -0.00, -1.00, 220.8, 278.7)">-</text><text xml:space="preserve" font-family="Helvetica-Light,Helvetica" font-size="42.0" fill="#D1CCBD" transform="matrix(1.00, 0.00, -0.00, -1.00, 234.7, 278.7)"> </text><text xml:space="preserve" font-family="Helvetica-Light,Helvetica" font-size="42.0" fill="#D1CCBD" transform="matrix(1.00, 0.00, -0.00, -1.00, 246.4, 278.7)">1</text><text xml:space="preserve" font-family="Helvetica-Light,Helvetica" font-size="42.0" fill="#D1CCBD" transform="matrix(1.00, 0.00, -0.00, -1.00, 269.8, 278.7)">4</text><text xml:space="preserve" font-family="Helvetica-Light,Helvetica" font-size="42.0" fill="#D1CCBD" transform="matrix(1.00, 0.00, -0.00, -1.00, 293.1, 278.7)">:</text><text xml:space="preserve" font-family="Helvetica-Light,Helvetica" font-size="42.0" fill="#D1CCBD" transform="matrix(1.00, 0.00, -0.00, -1.00, 304.8, 278.7)">3</text><text xml:space="preserve" font-family="Helvetica-Light,Helvetica" font-size="42.0" fill="#D1CCBD" transform="matrix(1.00, 0.00, -0.00, -1.00, 328.2, 278.7)">0</text><text xml:space="preserve" font-family="Helvetica-Light,Helvetica" font-size="42.0" fill="#D1CCBD" transform="matrix(1.00, 0.00, -0.00, -1.00, 351.5, 278.7)"> </text><text xml:space="preserve" font-family="Helvetica-Light,Helvetica" font-size="42.0" fill="#D1CCBD" transform="matrix(1.00, 0.00, -0.00, -1.00, 363.2, 278.7)">F</text><text xml:space="preserve" font-family="Helvetica-Light,Helvetica" font-size="42.0" fill="#D1CCBD" transform="matrix(1.00, 0.00, -0.00, -1.00, 386.5, 278.7)">u</text><text xml:space="preserve" font-family="Helvetica-Light,Helvetica" font-size="42.0" fill="#D1CCBD" transform="matrix(1.00, 0.00, -0.00, -1.00, 409.9, 278.7)">n</text><text xml:space="preserve" font-family="Helvetica-Light,Helvetica" font-size="42.0" fill="#D1CCBD" transform="matrix(1.00, 0.00, -0.00, -1.00, 433.2, 278.7)"> </text><text xml:space="preserve" font-family="Helvetica-Light,Helvetica" font-size="42.0" fill="#D1CCBD" transform="matrix(1.00, 0.00, -0.00, -1.00, 444.9, 278.7)">a</text><text xml:space="preserve" font-family="Helvetica-Light,Helvetica" font-size="42.0" fill="#D1CCBD" transform="matrix(1.00, 0.00, -0.00, -1.00, 468.3, 278.7)">n</text><text xml:space="preserve" font-family="Helvetica-Light,Helvetica" font-size="42.0" fill="#D1CCBD" transform="matrix(1.00, 0.00, -0.00, -1.00, 491.6, 278.7)">d</text><text xml:space="preserve" font-family="Helvetica-Light,Helvetica" font-size="42.0" fill="#D1CCBD" transform="matrix(1.00, 0.00, -0.00, -1.00, 517.3, 278.7)"> </text><text xml:space="preserve" font-family="Helvetica-Light,Helvetica" font-size="42.0" fill="#D1CCBD" transform="matrix(1.00, 0.00, -0.00, -1.00, 529.0, 278.7)">g</text><text xml:space="preserve" font-family="Helvetica-Light,Helvetica" font-size="42.0" fill="#D1CCBD" transform="matrix(1.00, 0.00, -0.00, -1.00, 554.6, 278.7)">a</text><text xml:space="preserve" font-family="Helvetica-Light,Helvetica" font-size="42.0" fill="#D1CCBD" transform="matrix(1.00, 0.00, -0.00, -1.00, 578.0, 278.7)">m</text><text xml:space="preserve" font-family="Helvetica-Light,Helvetica" font-size="42.0" fill="#D1CCBD" transform="matrix(1.00, 0.00, -0.00, -1.00, 613.0, 278.7)">e</text><text xml:space="preserve" font-family="Helvetica-Light,Helvetica" font-size="42.0" fill="#D1CCBD" transform="matrix(1.00, 0.00, -0.00, -1.00, 636.3, 278.7)">s</text><text xml:space="preserve" font-family="Helvetica-Light,Helvetica" font-size="42.0" fill="#D1CCBD" transform="matrix(1.00, 0.00, -0.00, -1.00, 657.3, 278.7)"> </text><text xml:space="preserve" font-family="Helvetica-Light,Helvetica" font-size="42.0" fill="#D1CCBD" transform="matrix(1.00, 0.00, -0.00, -1.00, 669.0, 278.7)">w</text><text xml:space="preserve" font-family="Helvetica-Light,Helvetica" font-size="42.0" fill="#D1CCBD" transform="matrix(1.00, 0.00, -0.00, -1.00, 699.3, 278.7)">i</text><text xml:space="preserve" font-family="Helvetica-Light,Helvetica" font-size="42.0" fill="#D1CCBD" transform="matrix(1.00, 0.00, -0.00, -1.00, 708.6, 278.7)">t</text><text xml:space="preserve" font-family="Helvetica-Light,Helvetica" font-size="42.0" fill="#D1CCBD" transform="matrix(1.00, 0.00, -0.00, -1.00, 720.3, 278.7)">h</text><text xml:space="preserve" font-family="Helvetica-Light,Helvetica" font-size="42.0" fill="#D1CCBD" transform="matrix(1.00, 0.00, -0.00, -1.00, 743.7, 278.7)"> </text><text xml:space="preserve" font-family="Helvetica-Light,Helvetica" font-size="42.0" fill="#D1CCBD" transform="matrix(1.00, 0.00, -0.00, -1.00, 755.3, 278.7)">D</text><text xml:space="preserve" font-family="Helvetica-Light,Helvetica" font-size="42.0" fill="#D1CCBD" transform="matrix(1.00, 0.00, -0.00, -1.00, 785.7, 278.7)">o</text><text xml:space="preserve" font-family="Helvetica-Light,Helvetica" font-size="42.0" fill="#D1CCBD" transform="matrix(1.00, 0.00, -0.00, -1.00, 809.0, 278.7)">c</text><text xml:space="preserve" font-family="Helvetica-Light,Helvetica" font-size="42.0" fill="#D1CCBD" transform="matrix(1.00, 0.00, -0.00, -1.00, 832.4, 278.7)">k</text><text xml:space="preserve" font-family="Helvetica-Light,Helvetica" font-size="42.0" fill="#D1CCBD" transform="matrix(1.00, 0.00, -0.00, -1.00, 853.4, 278.7)">e</text><text xml:space="preserve" font-family="Helvetica-Light,Helvetica" font-size="42.0" fill="#D1CCBD" transform="matrix(1.00, 0.00, -0.00, -1.00, 876.7, 278.7)">r</text><text xml:space="preserve" font-family="Helvetica-Light,Helvetica" font-size="42.0" fill="#D1CCBD" transform="matrix(1.00, 0.00, -0.00, -1.00, 890.7, 278.7)"> </text><text xml:space="preserve" font-family="Helvetica-Light,Helvetica" font-size="42.0" fill="#D1CCBD" transform="matrix(1.00, 0.00, -0.00, -1.00, 104.0, 228.7)">1</text><text xml:space="preserve" font-family="Helvetica-Light,Helvetica" font-size="42.0" fill="#D1CCBD" transform="matrix(1.00, 0.00, -0.00, -1.00, 127.4, 228.7)">4</text><text xml:space="preserve" font-family="Helvetica-Light,Helvetica" font-size="42.0" fill="#D1CCBD" transform="matrix(1.00, 0.00, -0.00, -1.00, 150.7, 228.7)">:</text><text xml:space="preserve" font-family="Helvetica-Light,Helvetica" font-size="42.0" fill="#D1CCBD" transform="matrix(1.00, 0.00, -0.00, -1.00, 162.4, 228.7)">3</text><text xml:space="preserve" font-family="Helvetica-Light,Helvetica" font-size="42.0" fill="#D1CCBD" transform="matrix(1.00, 0.00, -0.00, -1.00, 185.7, 228.7)">0</text><text xml:space="preserve" font-family="Helvetica-Light,Helvetica" font-size="42.0" fill="#D1CCBD" transform="matrix(1.00, 0.00, -0.00, -1.00, 209.1, 228.7)"> </text><text xml:space="preserve" font-family="Helvetica-Light,Helvetica" font-size="42.0" fill="#D1CCBD" transform="matrix(1.00, 0.00, -0.00, -1.00, 220.8, 228.7)">-</text><text xml:space="preserve" font-family="Helvetica-Light,Helvetica" font-size="42.0" fill="#D1CCBD" transform="matrix(1.00, 0.00, -0.00, -1.00, 234.7, 228.7)"> </text><text xml:space="preserve" font-family="Helvetica-Light,Helvetica" font-size="42.0" fill="#D1CCBD" transform="matrix(1.00, 0.00, -0.00, -1.00, 246.4, 228.7)">1</text><text xml:space="preserve" font-family="Helvetica-Light,Helvetica" font-size="42.0" fill="#D1CCBD" transform="matrix(1.00, 0.00, -0.00, -1.00, 269.8, 228.7)">4</text><text xml:space="preserve" font-family="Helvetica-Light,Helvetica" font-size="42.0" fill="#D1CCBD" transform="matrix(1.00, 0.00, -0.00, -1.00, 293.1, 228.7)">:</text><text xml:space="preserve" font-family="Helvetica-Light,Helvetica" font-size="42.0" fill="#D1CCBD" transform="matrix(1.00, 0.00, -0.00, -1.00, 304.8, 228.7)">4</text><text xml:space="preserve" font-family="Helvetica-Light,Helvetica" font-size="42.0" fill="#D1CCBD" transform="matrix(1.00, 0.00, -0.00, -1.00, 328.2, 228.7)">5</text><text xml:space="preserve" font-family="Helvetica-Light,Helvetica" font-size="42.0" fill="#D1CCBD" transform="matrix(1.00, 0.00, -0.00, -1.00, 351.5, 228.7)"> </text><text xml:space="preserve" font-family="Helvetica-Light,Helvetica" font-size="42.0" fill="#D1CCBD" transform="matrix(1.00, 0.00, -0.00, -1.00, 363.2, 228.7)">C</text><text xml:space="preserve" font-family="Helvetica-Light,Helvetica" font-size="42.0" fill="#D1CCBD" transform="matrix(1.00, 0.00, -0.00, -1.00, 393.5, 228.7)">o</text><text xml:space="preserve" font-family="Helvetica-Light,Helvetica" font-size="42.0" fill="#D1CCBD" transform="matrix(1.00, 0.00, -0.00, -1.00, 416.9, 228.7)">f</text><text xml:space="preserve" font-family="Helvetica-Light,Helvetica" font-size="42.0" fill="#D1CCBD" transform="matrix(1.00, 0.00, -0.00, -1.00, 427.8, 228.7)">f</text><text xml:space="preserve" font-family="Helvetica-Light,Helvetica" font-size="42.0" fill="#D1CCBD" transform="matrix(1.00, 0.00, -0.00, -1.00, 439.5, 228.7)">e</text><text xml:space="preserve" font-family="Helvetica-Light,Helvetica" font-size="42.0" fill="#D1CCBD" transform="matrix(1.00, 0.00, -0.00, -1.00, 462.8, 228.7)">e</text><text xml:space="preserve" font-family="Helvetica-Light,Helvetica" font-size="42.0" fill="#D1CCBD" transform="matrix(1.00, 0.00, -0.00, -1.00, 486.2, 228.7)"> </text><text xml:space="preserve" font-family="Helvetica-Light,Helvetica" font-size="42.0" fill="#D1CCBD" transform="matrix(1.00, 0.00, -0.00, -1.00, 497.8, 228.7)">B</text><text xml:space="preserve" font-family="Helvetica-Light,Helvetica" font-size="42.0" fill="#D1CCBD" transform="matrix(1.00, 0.00, -0.00, -1.00, 525.8, 228.7)">r</text><text xml:space="preserve" font-family="Helvetica-Light,Helvetica" font-size="42.0" fill="#D1CCBD" transform="matrix(1.00, 0.00, -0.00, -1.00, 539.1, 228.7)">e</text><text xml:space="preserve" font-family="Helvetica-Light,Helvetica" font-size="42.0" fill="#D1CCBD" transform="matrix(1.00, 0.00, -0.00, -1.00, 562.4, 228.7)">a</text><text xml:space="preserve" font-family="Helvetica-Light,Helvetica" font-size="42.0" fill="#D1CCBD" transform="matrix(1.00, 0.00, -0.00, -1.00, 585.8, 228.7)">k</text><text xml:space="preserve" font-family="Helvetica-Light,Helvetica" font-size="42.0" fill="#D1CCBD" transform="matrix(1.00, 0.00, -0.00, -1.00, 606.8, 228.7)"> </text><text xml:space="preserve" font-family="Helvetica-Light,Helvetica" font-size="42.0" fill="#D1CCBD" transform="matrix(1.00, 0.00, -0.00, -1.00, 104.0, 178.7)">1</text><text xml:space="preserve" font-family="Helvetica-Light,Helvetica" font-size="42.0" fill="#D1CCBD" transform="matrix(1.00, 0.00, -0.00, -1.00, 127.4, 178.7)">4</text><text xml:space="preserve" font-family="Helvetica-Light,Helvetica" font-size="42.0" fill="#D1CCBD" transform="matrix(1.00, 0.00, -0.00, -1.00, 150.7, 178.7)">:</text><text xml:space="preserve" font-family="Helvetica-Light,Helvetica" font-size="42.0" fill="#D1CCBD" transform="matrix(1.00, 0.00, -0.00, -1.00, 162.4, 178.7)">4</text><text xml:space="preserve" font-family="Helvetica-Light,Helvetica" font-size="42.0" fill="#D1CCBD" transform="matrix(1.00, 0.00, -0.00, -1.00, 185.7, 178.7)">5</text><text xml:space="preserve" font-family="Helvetica-Light,Helvetica" font-size="42.0" fill="#D1CCBD" transform="matrix(1.00, 0.00, -0.00, -1.00, 209.1, 178.7)"> </text><text xml:space="preserve" font-family="Helvetica-Light,Helvetica" font-size="42.0" fill="#D1CCBD" transform="matrix(1.00, 0.00, -0.00, -1.00, 220.8, 178.7)">-</text><text xml:space="preserve" font-family="Helvetica-Light,Helvetica" font-size="42.0" fill="#D1CCBD" transform="matrix(1.00, 0.00, -0.00, -1.00, 234.7, 178.7)"> </text><text xml:space="preserve" font-family="Helvetica-Light,Helvetica" font-size="42.0" fill="#D1CCBD" transform="matrix(1.00, 0.00, -0.00, -1.00, 246.4, 178.7)">1</text><text xml:space="preserve" font-family="Helvetica-Light,Helvetica" font-size="42.0" fill="#D1CCBD" transform="matrix(1.00, 0.00, -0.00, -1.00, 269.8, 178.7)">5</text><text xml:space="preserve" font-family="Helvetica-Light,Helvetica" font-size="42.0" fill="#D1CCBD" transform="matrix(1.00, 0.00, -0.00, -1.00, 293.1, 178.7)">:</text><text xml:space="preserve" font-family="Helvetica-Light,Helvetica" font-size="42.0" fill="#D1CCBD" transform="matrix(1.00, 0.00, -0.00, -1.00, 304.8, 178.7)">4</text><text xml:space="preserve" font-family="Helvetica-Light,Helvetica" font-size="42.0" fill="#D1CCBD" transform="matrix(1.00, 0.00, -0.00, -1.00, 328.2, 178.7)">5</text><text xml:space="preserve" font-family="Helvetica-Light,Helvetica" font-size="42.0" fill="#D1CCBD" transform="matrix(1.00, 0.00, -0.00, -1.00, 351.5, 178.7)"> </text><text xml:space="preserve" font-family="Helvetica-Light,Helvetica" font-size="42.0" fill="#D1CCBD" transform="matrix(1.00, 0.00, -0.00, -1.00, 363.2, 178.7)">M</text><text xml:space="preserve" font-family="Helvetica-Light,Helvetica" font-size="42.0" fill="#D1CCBD" transform="matrix(1.00, 0.00, -0.00, -1.00, 398.2, 178.7)">o</text><text xml:space="preserve" font-family="Helvetica-Light,Helvetica" font-size="42.0" fill="#D1CCBD" transform="matrix(1.00, 0.00, -0.00, -1.00, 421.5, 178.7)">r</text><text xml:space="preserve" font-family="Helvetica-Light,Helvetica" font-size="42.0" fill="#D1CCBD" transform="matrix(1.00, 0.00, -0.00, -1.00, 434.8, 178.7)">e</text><text xml:space="preserve" font-family="Helvetica-Light,Helvetica" font-size="42.0" fill="#D1CCBD" transform="matrix(1.00, 0.00, -0.00, -1.00, 458.1, 178.7)"> </text><text xml:space="preserve" font-family="Helvetica-Light,Helvetica" font-size="42.0" fill="#D1CCBD" transform="matrix(1.00, 0.00, -0.00, -1.00, 469.8, 178.7)">a</text><text xml:space="preserve" font-family="Helvetica-Light,Helvetica" font-size="42.0" fill="#D1CCBD" transform="matrix(1.00, 0.00, -0.00, -1.00, 493.1, 178.7)">d</text><text xml:space="preserve" font-family="Helvetica-Light,Helvetica" font-size="42.0" fill="#D1CCBD" transform="matrix(1.00, 0.00, -0.00, -1.00, 518.8, 178.7)">v</text><text xml:space="preserve" font-family="Helvetica-Light,Helvetica" font-size="42.0" fill="#D1CCBD" transform="matrix(1.00, 0.00, -0.00, -1.00, 539.8, 178.7)">a</text><text xml:space="preserve" font-family="Helvetica-Light,Helvetica" font-size="42.0" fill="#D1CCBD" transform="matrix(1.00, 0.00, -0.00, -1.00, 563.1, 178.7)">n</text><text xml:space="preserve" font-family="Helvetica-Light,Helvetica" font-size="42.0" fill="#D1CCBD" transform="matrix(1.00, 0.00, -0.00, -1.00, 586.5, 178.7)">c</text><text xml:space="preserve" font-family="Helvetica-Light,Helvetica" font-size="42.0" fill="#D1CCBD" transform="matrix(1.00, 0.00, -0.00, -1.00, 609.8, 178.7)">e</text><text xml:space="preserve" font-family="Helvetica-Light,Helvetica" font-size="42.0" fill="#D1CCBD" transform="matrix(1.00, 0.00, -0.00, -1.00, 633.2, 178.7)">d</text><text xml:space="preserve" font-family="Helvetica-Light,Helvetica" font-size="42.0" fill="#D1CCBD" transform="matrix(1.00, 0.00, -0.00, -1.00, 658.9, 178.7)"> </text><text xml:space="preserve" font-family="Helvetica-Light,Helvetica" font-size="42.0" fill="#D1CCBD" transform="matrix(1.00, 0.00, -0.00, -1.00, 670.5, 178.7)">t</text><text xml:space="preserve" font-family="Helvetica-Light,Helvetica" font-size="42.0" fill="#D1CCBD" transform="matrix(1.00, 0.00, -0.00, -1.00, 682.2, 178.7)">e</text><text xml:space="preserve" font-family="Helvetica-Light,Helvetica" font-size="42.0" fill="#D1CCBD" transform="matrix(1.00, 0.00, -0.00, -1.00, 705.6, 178.7)">c</text><text xml:space="preserve" font-family="Helvetica-Light,Helvetica" font-size="42.0" fill="#D1CCBD" transform="matrix(1.00, 0.00, -0.00, -1.00, 728.9, 178.7)">h</text><text xml:space="preserve" font-family="Helvetica-Light,Helvetica" font-size="42.0" fill="#D1CCBD" transform="matrix(1.00, 0.00, -0.00, -1.00, 752.3, 178.7)">n</text><text xml:space="preserve" font-family="Helvetica-Light,Helvetica" font-size="42.0" fill="#D1CCBD" transform="matrix(1.00, 0.00, -0.00, -1.00, 775.6, 178.7)">i</text><text xml:space="preserve" font-family="Helvetica-Light,Helvetica" font-size="42.0" fill="#D1CCBD" transform="matrix(1.00, 0.00, -0.00, -1.00, 784.9, 178.7)">q</text><text xml:space="preserve" font-family="Helvetica-Light,Helvetica" font-size="42.0" fill="#D1CCBD" transform="matrix(1.00, 0.00, -0.00, -1.00, 810.6, 178.7)">u</text><text xml:space="preserve" font-family="Helvetica-Light,Helvetica" font-size="42.0" fill="#D1CCBD" transform="matrix(1.00, 0.00, -0.00, -1.00, 834.0, 178.7)">e</text><text xml:space="preserve" font-family="Helvetica-Light,Helvetica" font-size="42.0" fill="#D1CCBD" transform="matrix(1.00, 0.00, -0.00, -1.00, 857.3, 178.7)">s</text><text xml:space="preserve" font-family="Helvetica-Light,Helvetica" font-size="42.0" fill="#D1CCBD" transform="matrix(1.00, 0.00, -0.00, -1.00, 878.3, 178.7)"> </text><text xml:space="preserve" font-family="Helvetica-Light,Helvetica" font-size="42.0" fill="#D1CCBD" transform="matrix(1.00, 0.00, -0.00, -1.00, 104.0, 128.7)">1</text><text xml:space="preserve" font-family="Helvetica-Light,Helvetica" font-size="42.0" fill="#D1CCBD" transform="matrix(1.00, 0.00, -0.00, -1.00, 127.4, 128.7)">5</text><text xml:space="preserve" font-family="Helvetica-Light,Helvetica" font-size="42.0" fill="#D1CCBD" transform="matrix(1.00, 0.00, -0.00, -1.00, 150.7, 128.7)">:</text><text xml:space="preserve" font-family="Helvetica-Light,Helvetica" font-size="42.0" fill="#D1CCBD" transform="matrix(1.00, 0.00, -0.00, -1.00, 162.4, 128.7)">4</text><text xml:space="preserve" font-family="Helvetica-Light,Helvetica" font-size="42.0" fill="#D1CCBD" transform="matrix(1.00, 0.00, -0.00, -1.00, 185.7, 128.7)">5</text><text xml:space="preserve" font-family="Helvetica-Light,Helvetica" font-size="42.0" fill="#D1CCBD" transform="matrix(1.00, 0.00, -0.00, -1.00, 209.1, 128.7)"> </text><text xml:space="preserve" font-family="Helvetica-Light,Helvetica" font-size="42.0" fill="#D1CCBD" transform="matrix(1.00, 0.00, -0.00, -1.00, 220.8, 128.7)">-</text><text xml:space="preserve" font-family="Helvetica-Light,Helvetica" font-size="42.0" fill="#D1CCBD" transform="matrix(1.00, 0.00, -0.00, -1.00, 234.7, 128.7)"> </text><text xml:space="preserve" font-family="Helvetica-Light,Helvetica" font-size="42.0" fill="#D1CCBD" transform="matrix(1.00, 0.00, -0.00, -1.00, 246.4, 128.7)">1</text><text xml:space="preserve" font-family="Helvetica-Light,Helvetica" font-size="42.0" fill="#D1CCBD" transform="matrix(1.00, 0.00, -0.00, -1.00, 269.8, 128.7)">6</text><text xml:space="preserve" font-family="Helvetica-Light,Helvetica" font-size="42.0" fill="#D1CCBD" transform="matrix(1.00, 0.00, -0.00, -1.00, 293.1, 128.7)">:</text><text xml:space="preserve" font-family="Helvetica-Light,Helvetica" font-size="42.0" fill="#D1CCBD" transform="matrix(1.00, 0.00, -0.00, -1.00, 304.8, 128.7)">3</text><text xml:space="preserve" font-family="Helvetica-Light,Helvetica" font-size="42.0" fill="#D1CCBD" transform="matrix(1.00, 0.00, -0.00, -1.00, 328.2, 128.7)">0</text><text xml:space="preserve" font-family="Helvetica-Light,Helvetica" font-size="42.0" fill="#D1CCBD" transform="matrix(1.00, 0.00, -0.00, -1.00, 351.5, 128.7)"> </text><text xml:space="preserve" font-family="Helvetica-Light,Helvetica" font-size="42.0" fill="#D1CCBD" transform="matrix(1.00, 0.00, -0.00, -1.00, 363.2, 128.7)">Q</text><text xml:space="preserve" font-family="Helvetica-Light,Helvetica" font-size="42.0" fill="#D1CCBD" transform="matrix(1.00, 0.00, -0.00, -1.00, 395.9, 128.7)">u</text><text xml:space="preserve" font-family="Helvetica-Light,Helvetica" font-size="42.0" fill="#D1CCBD" transform="matrix(1.00, 0.00, -0.00, -1.00, 419.2, 128.7)">e</text><text xml:space="preserve" font-family="Helvetica-Light,Helvetica" font-size="42.0" fill="#D1CCBD" transform="matrix(1.00, 0.00, -0.00, -1.00, 442.6, 128.7)">s</text><text xml:space="preserve" font-family="Helvetica-Light,Helvetica" font-size="42.0" fill="#D1CCBD" transform="matrix(1.00, 0.00, -0.00, -1.00, 463.6, 128.7)">t</text><text xml:space="preserve" font-family="Helvetica-Light,Helvetica" font-size="42.0" fill="#D1CCBD" transform="matrix(1.00, 0.00, -0.00, -1.00, 475.2, 128.7)">i</text><text xml:space="preserve" font-family="Helvetica-Light,Helvetica" font-size="42.0" fill="#D1CCBD" transform="matrix(1.00, 0.00, -0.00, -1.00, 484.6, 128.7)">o</text><text xml:space="preserve" font-family="Helvetica-Light,Helvetica" font-size="42.0" fill="#D1CCBD" transform="matrix(1.00, 0.00, -0.00, -1.00, 507.9, 128.7)">n</text><text xml:space="preserve" font-family="Helvetica-Light,Helvetica" font-size="42.0" fill="#D1CCBD" transform="matrix(1.00, 0.00, -0.00, -1.00, 531.3, 128.7)">/</text><text xml:space="preserve" font-family="Helvetica-Light,Helvetica" font-size="42.0" fill="#D1CCBD" transform="matrix(1.00, 0.00, -0.00, -1.00, 542.9, 128.7)">P</text><text xml:space="preserve" font-family="Helvetica-Light,Helvetica" font-size="42.0" fill="#D1CCBD" transform="matrix(1.00, 0.00, -0.00, -1.00, 568.6, 128.7)">l</text><text xml:space="preserve" font-family="Helvetica-Light,Helvetica" font-size="42.0" fill="#D1CCBD" transform="matrix(1.00, 0.00, -0.00, -1.00, 577.9, 128.7)">a</text><text xml:space="preserve" font-family="Helvetica-Light,Helvetica" font-size="42.0" fill="#D1CCBD" transform="matrix(1.00, 0.00, -0.00, -1.00, 601.3, 128.7)">y</text><text xml:space="preserve" font-family="Helvetica-Light,Helvetica" font-size="42.0" fill="#D1CCBD" transform="matrix(1.00, 0.00, -0.00, -1.00, 622.3, 128.7)">/</text><text xml:space="preserve" font-family="Helvetica-Light,Helvetica" font-size="42.0" fill="#D1CCBD" transform="matrix(1.00, 0.00, -0.00, -1.00, 634.0, 128.7)">O</text><text xml:space="preserve" font-family="Helvetica-Light,Helvetica" font-size="42.0" fill="#D1CCBD" transform="matrix(1.00, 0.00, -0.00, -1.00, 666.6, 128.7)">v</text><text xml:space="preserve" font-family="Helvetica-Light,Helvetica" font-size="42.0" fill="#D1CCBD" transform="matrix(1.00, 0.00, -0.00, -1.00, 687.6, 128.7)">e</text><text xml:space="preserve" font-family="Helvetica-Light,Helvetica" font-size="42.0" fill="#D1CCBD" transform="matrix(1.00, 0.00, -0.00, -1.00, 711.0, 128.7)">r</text><text xml:space="preserve" font-family="Helvetica-Light,Helvetica" font-size="42.0" fill="#D1CCBD" transform="matrix(1.00, 0.00, -0.00, -1.00, 725.0, 128.7)">r</text><text xml:space="preserve" font-family="Helvetica-Light,Helvetica" font-size="42.0" fill="#D1CCBD" transform="matrix(1.00, 0.00, -0.00, -1.00, 739.0, 128.7)">u</text><text xml:space="preserve" font-family="Helvetica-Light,Helvetica" font-size="42.0" fill="#D1CCBD" transform="matrix(1.00, 0.00, -0.00, -1.00, 762.3, 128.7)">n</text><text xml:space="preserve" font-family="Helvetica-Light,Helvetica" font-size="42.0" fill="#D1CCBD" transform="matrix(1.00, 0.00, -0.00, -1.00, 785.7, 128.7)"> </text><text xml:space="preserve" font-family="Helvetica-Light,Helvetica" font-size="42.0" fill="#D1CCBD" transform="matrix(1.00, 0.00, -0.00, -1.00, 797.3, 128.7)">t</text><text xml:space="preserve" font-family="Helvetica-Light,Helvetica" font-size="42.0" fill="#D1CCBD" transform="matrix(1.00, 0.00, -0.00, -1.00, 809.0, 128.7)">i</text><text xml:space="preserve" font-family="Helvetica-Light,Helvetica" font-size="42.0" fill="#D1CCBD" transform="matrix(1.00, 0.00, -0.00, -1.00, 818.3, 128.7)">m</text><text xml:space="preserve" font-family="Helvetica-Light,Helvetica" font-size="42.0" fill="#D1CCBD" transform="matrix(1.00, 0.00, -0.00, -1.00, 853.3, 128.7)">e</text></g></svg>