<?xml version="1.0" encoding="UTF-8" standalone="no"?><svg xmlns="http://www.w3.org/2000/svg" xmlns:xlink="http://www.w3.org/1999/xlink" clip-rule="evenodd" stroke-miterlimit="10" viewBox="0 0 1024 768"><desc>SVG generated by Keynote</desc><defs></defs><g transform="matrix(1.00, 0.00, -0.00, -1.00, 0.0, 768.0)"><path d="M 0.0 768.0 L 1024.0 768.0 L 1024.0 0.0 L 0.0 0.0 Z M 0.0 768.0 " fill="#FEFFFF"></path><image xlink:href="../../3BC8020D-1F36-4539-B9AC-02F2FA89CB7E/assets/7F4F24FAB2BE4AECA15887D26A47A79B.png" width="1830.00" height="964.00" transform="matrix(0.08, 0.00, -0.00, -0.08, 825.0, 118.0)"></image><text xml:space="preserve" font-family="SourceSansPro-Light,Source Sans Pro" font-size="96.0" fill="#081E2B" transform="matrix(1.00, 0.00, -0.00, -1.00, 298.5, 410.2)">I</text><text xml:space="preserve" font-family="SourceSansPro-Light,Source Sans Pro" font-size="96.0" fill="#081E2B" transform="matrix(1.00, 0.00, -0.00, -1.00, 321.6, 410.2)">m</text><text xml:space="preserve" font-family="SourceSansPro-Light,Source Sans Pro" font-size="96.0" fill="#081E2B" transform="matrix(1.00, 0.00, -0.00, -1.00, 399.5, 410.2)">m</text><text xml:space="preserve" font-family="SourceSansPro-Light,Source Sans Pro" font-size="96.0" fill="#081E2B" transform="matrix(1.00, 0.00, -0.00, -1.00, 477.5, 410.2)">u</text><text xml:space="preserve" font-family="SourceSansPro-Light,Source Sans Pro" font-size="96.0" fill="#081E2B" transform="matrix(1.00, 0.00, -0.00, -1.00, 528.3, 410.2)">t</text><text xml:space="preserve" font-family="SourceSansPro-Light,Source Sans Pro" font-size="96.0" fill="#081E2B" transform="matrix(1.00, 0.00, -0.00, -1.00, 556.2, 410.2)">a</text><text xml:space="preserve" font-family="SourceSansPro-Light,Source Sans Pro" font-size="96.0" fill="#081E2B" transform="matrix(1.00, 0.00, -0.00, -1.00, 604.1, 410.2)">b</text><text xml:space="preserve" font-family="SourceSansPro-Light,Source Sans Pro" font-size="96.0" fill="#081E2B" transform="matrix(1.00, 0.00, -0.00, -1.00, 656.3, 410.2)">l</text><text xml:space="preserve" font-family="SourceSansPro-Light,Source Sans Pro" font-size="96.0" fill="#081E2B" transform="matrix(1.00, 0.00, -0.00, -1.00, 679.1, 410.2)">e</text><text xml:space="preserve" font-family="SourceSansPro-Light,Source Sans Pro" font-size="96.0" fill="#081E2B" transform="matrix(1.00, 0.00, -0.00, -1.00, 725.5, 410.2)"> </text><text xml:space="preserve" font-family="SourceSansPro-Light,Source Sans Pro" font-size="96.0" fill="#081E2B" transform="matrix(1.00, 0.00, -0.00, -1.00, 253.6, 290.2)">D</text><text xml:space="preserve" font-family="SourceSansPro-Light,Source Sans Pro" font-size="96.0" fill="#081E2B" transform="matrix(1.00, 0.00, -0.00, -1.00, 311.6, 290.2)">e</text><text xml:space="preserve" font-family="SourceSansPro-Light,Source Sans Pro" font-size="96.0" fill="#081E2B" transform="matrix(1.00, 0.00, -0.00, -1.00, 358.0, 290.2)">p</text><text xml:space="preserve" font-family="SourceSansPro-Light,Source Sans Pro" font-size="96.0" fill="#081E2B" transform="matrix(1.00, 0.00, -0.00, -1.00, 410.2, 290.2)">l</text><text xml:space="preserve" font-family="SourceSansPro-Light,Source Sans Pro" font-size="96.0" fill="#081E2B" transform="matrix(1.00, 0.00, -0.00, -1.00, 432.9, 290.2)">o</text><text xml:space="preserve" font-family="SourceSansPro-Light,Source Sans Pro" font-size="96.0" fill="#081E2B" transform="matrix(1.00, 0.00, -0.00, -1.00, 484.3, 290.2)">y</text><text xml:space="preserve" font-family="SourceSansPro-Light,Source Sans Pro" font-size="96.0" fill="#081E2B" transform="matrix(1.00, 0.00, -0.00, -1.00, 526.2, 290.2)">m</text><text xml:space="preserve" font-family="SourceSansPro-Light,Source Sans Pro" font-size="96.0" fill="#081E2B" transform="matrix(1.00, 0.00, -0.00, -1.00, 604.1, 290.2)">e</text><text xml:space="preserve" font-family="SourceSansPro-Light,Source Sans Pro" font-size="96.0" fill="#081E2B" transform="matrix(1.00, 0.00, -0.00, -1.00, 650.5, 290.2)">n</text><text xml:space="preserve" font-family="SourceSansPro-Light,Source Sans Pro" font-size="96.0" fill="#081E2B" transform="matrix(1.00, 0.00, -0.00, -1.00, 701.6, 290.2)">t</text><text xml:space="preserve" font-family="SourceSansPro-Light,Source Sans Pro" font-size="96.0" fill="#081E2B" transform="matrix(1.00, 0.00, -0.00, -1.00, 731.5, 290.2)">s</text></g></svg>