<?xml version="1.0" encoding="UTF-8" standalone="no"?><svg xmlns="http://www.w3.org/2000/svg" xmlns:xlink="http://www.w3.org/1999/xlink" clip-rule="evenodd" stroke-miterlimit="10" viewBox="0 0 1024 768"><desc>SVG generated by Keynote</desc><defs></defs><g transform="matrix(1.00, 0.00, -0.00, -1.00, 0.0, 768.0)"><path d="M 0.0 768.0 L 1024.0 768.0 L 1024.0 0.0 L 0.0 0.0 Z M 0.0 768.0 " fill="#FEFFFF"></path><image xlink:href="../../3BC8020D-1F36-4539-B9AC-02F2FA89CB7E/assets/7F4F24FAB2BE4AECA15887D26A47A79B.png" width="1830.00" height="964.00" transform="matrix(0.08, 0.00, -0.00, -0.08, 825.0, 118.0)"></image><text xml:space="preserve" font-family="Monaco,Monaco" font-size="32.0" fill="#A6AAA8" transform="matrix(1.00, 0.00, -0.00, -1.00, 104.0, 673.0)">#</text><text xml:space="preserve" font-family="Monaco,Monaco" font-size="32.0" fill="#A6AAA8" transform="matrix(1.00, 0.00, -0.00, -1.00, 123.2, 673.0)"> </text><text xml:space="preserve" font-family="Monaco,Monaco" font-size="32.0" fill="#A6AAA8" transform="matrix(1.00, 0.00, -0.00, -1.00, 142.4, 673.0)">P</text><text xml:space="preserve" font-family="Monaco,Monaco" font-size="32.0" fill="#A6AAA8" transform="matrix(1.00, 0.00, -0.00, -1.00, 161.6, 673.0)">i</text><text xml:space="preserve" font-family="Monaco,Monaco" font-size="32.0" fill="#A6AAA8" transform="matrix(1.00, 0.00, -0.00, -1.00, 180.8, 673.0)">n</text><text xml:space="preserve" font-family="Monaco,Monaco" font-size="32.0" fill="#A6AAA8" transform="matrix(1.00, 0.00, -0.00, -1.00, 200.0, 673.0)">g</text><text xml:space="preserve" font-family="Monaco,Monaco" font-size="32.0" fill="#A6AAA8" transform="matrix(1.00, 0.00, -0.00, -1.00, 219.2, 673.0)"> </text><text xml:space="preserve" font-family="Monaco,Monaco" font-size="32.0" fill="#A6AAA8" transform="matrix(1.00, 0.00, -0.00, -1.00, 238.4, 673.0)">S</text><text xml:space="preserve" font-family="Monaco,Monaco" font-size="32.0" fill="#A6AAA8" transform="matrix(1.00, 0.00, -0.00, -1.00, 257.7, 673.0)">e</text><text xml:space="preserve" font-family="Monaco,Monaco" font-size="32.0" fill="#A6AAA8" transform="matrix(1.00, 0.00, -0.00, -1.00, 276.9, 673.0)">r</text><text xml:space="preserve" font-family="Monaco,Monaco" font-size="32.0" fill="#A6AAA8" transform="matrix(1.00, 0.00, -0.00, -1.00, 296.1, 673.0)">v</text><text xml:space="preserve" font-family="Monaco,Monaco" font-size="32.0" fill="#A6AAA8" transform="matrix(1.00, 0.00, -0.00, -1.00, 315.3, 673.0)">e</text><text xml:space="preserve" font-family="Monaco,Monaco" font-size="32.0" fill="#A6AAA8" transform="matrix(1.00, 0.00, -0.00, -1.00, 334.5, 673.0)">r</text><text xml:space="preserve" font-family="Monaco,Monaco" font-size="32.0" fill="#A6AAA8" transform="matrix(1.00, 0.00, -0.00, -1.00, 353.7, 673.0)"> </text><text xml:space="preserve" font-family="Monaco,Monaco" font-size="32.0" fill="#A6AAA8" transform="matrix(1.00, 0.00, -0.00, -1.00, 372.9, 673.0)">D</text><text xml:space="preserve" font-family="Monaco,Monaco" font-size="32.0" fill="#A6AAA8" transform="matrix(1.00, 0.00, -0.00, -1.00, 392.1, 673.0)">o</text><text xml:space="preserve" font-family="Monaco,Monaco" font-size="32.0" fill="#A6AAA8" transform="matrix(1.00, 0.00, -0.00, -1.00, 411.3, 673.0)">c</text><text xml:space="preserve" font-family="Monaco,Monaco" font-size="32.0" fill="#A6AAA8" transform="matrix(1.00, 0.00, -0.00, -1.00, 430.5, 673.0)">k</text><text xml:space="preserve" font-family="Monaco,Monaco" font-size="32.0" fill="#A6AAA8" transform="matrix(1.00, 0.00, -0.00, -1.00, 449.7, 673.0)">e</text><text xml:space="preserve" font-family="Monaco,Monaco" font-size="32.0" fill="#A6AAA8" transform="matrix(1.00, 0.00, -0.00, -1.00, 468.9, 673.0)">r</text><text xml:space="preserve" font-family="Monaco,Monaco" font-size="32.0" fill="#A6AAA8" transform="matrix(1.00, 0.00, -0.00, -1.00, 488.1, 673.0)">f</text><text xml:space="preserve" font-family="Monaco,Monaco" font-size="32.0" fill="#A6AAA8" transform="matrix(1.00, 0.00, -0.00, -1.00, 507.3, 673.0)">i</text><text xml:space="preserve" font-family="Monaco,Monaco" font-size="32.0" fill="#A6AAA8" transform="matrix(1.00, 0.00, -0.00, -1.00, 526.5, 673.0)">l</text><text xml:space="preserve" font-family="Monaco,Monaco" font-size="32.0" fill="#A6AAA8" transform="matrix(1.00, 0.00, -0.00, -1.00, 545.7, 673.0)">e</text><text xml:space="preserve" font-family="Monaco,Monaco" font-size="32.0" fill="#081E2B" transform="matrix(1.00, 0.00, -0.00, -1.00, 104.0, 630.0)">F</text><text xml:space="preserve" font-family="Monaco,Monaco" font-size="32.0" fill="#081E2B" transform="matrix(1.00, 0.00, -0.00, -1.00, 123.2, 630.0)">R</text><text xml:space="preserve" font-family="Monaco,Monaco" font-size="32.0" fill="#081E2B" transform="matrix(1.00, 0.00, -0.00, -1.00, 142.4, 630.0)">O</text><text xml:space="preserve" font-family="Monaco,Monaco" font-size="32.0" fill="#081E2B" transform="matrix(1.00, 0.00, -0.00, -1.00, 161.6, 630.0)">M</text><text xml:space="preserve" font-family="Monaco,Monaco" font-size="32.0" fill="#081E2B" transform="matrix(1.00, 0.00, -0.00, -1.00, 180.8, 630.0)"> </text><text xml:space="preserve" font-family="Monaco,Monaco" font-size="32.0" fill="#081E2B" transform="matrix(1.00, 0.00, -0.00, -1.00, 200.0, 630.0)">d</text><text xml:space="preserve" font-family="Monaco,Monaco" font-size="32.0" fill="#081E2B" transform="matrix(1.00, 0.00, -0.00, -1.00, 219.2, 630.0)">e</text><text xml:space="preserve" font-family="Monaco,Monaco" font-size="32.0" fill="#081E2B" transform="matrix(1.00, 0.00, -0.00, -1.00, 238.4, 630.0)">b</text><text xml:space="preserve" font-family="Monaco,Monaco" font-size="32.0" fill="#081E2B" transform="matrix(1.00, 0.00, -0.00, -1.00, 257.7, 630.0)">i</text><text xml:space="preserve" font-family="Monaco,Monaco" font-size="32.0" fill="#081E2B" transform="matrix(1.00, 0.00, -0.00, -1.00, 276.9, 630.0)">a</text><text xml:space="preserve" font-family="Monaco,Monaco" font-size="32.0" fill="#081E2B" transform="matrix(1.00, 0.00, -0.00, -1.00, 296.1, 630.0)">n</text><text xml:space="preserve" font-family="Monaco,Monaco" font-size="32.0" fill="#081E2B" transform="matrix(1.00, 0.00, -0.00, -1.00, 315.3, 630.0)">:</text><text xml:space="preserve" font-family="Monaco,Monaco" font-size="32.0" fill="#081E2B" transform="matrix(1.00, 0.00, -0.00, -1.00, 334.5, 630.0)">l</text><text xml:space="preserve" font-family="Monaco,Monaco" font-size="32.0" fill="#081E2B" transform="matrix(1.00, 0.00, -0.00, -1.00, 353.7, 630.0)">a</text><text xml:space="preserve" font-family="Monaco,Monaco" font-size="32.0" fill="#081E2B" transform="matrix(1.00, 0.00, -0.00, -1.00, 372.9, 630.0)">t</text><text xml:space="preserve" font-family="Monaco,Monaco" font-size="32.0" fill="#081E2B" transform="matrix(1.00, 0.00, -0.00, -1.00, 392.1, 630.0)">e</text><text xml:space="preserve" font-family="Monaco,Monaco" font-size="32.0" fill="#081E2B" transform="matrix(1.00, 0.00, -0.00, -1.00, 411.3, 630.0)">s</text><text xml:space="preserve" font-family="Monaco,Monaco" font-size="32.0" fill="#081E2B" transform="matrix(1.00, 0.00, -0.00, -1.00, 430.5, 630.0)">t</text><text xml:space="preserve" font-family="Monaco,Monaco" font-size="32.0" fill="#081E2B" transform="matrix(1.00, 0.00, -0.00, -1.00, 104.0, 587.0)">M</text><text xml:space="preserve" font-family="Monaco,Monaco" font-size="32.0" fill="#081E2B" transform="matrix(1.00, 0.00, -0.00, -1.00, 123.2, 587.0)">A</text><text xml:space="preserve" font-family="Monaco,Monaco" font-size="32.0" fill="#081E2B" transform="matrix(1.00, 0.00, -0.00, -1.00, 142.4, 587.0)">I</text><text xml:space="preserve" font-family="Monaco,Monaco" font-size="32.0" fill="#081E2B" transform="matrix(1.00, 0.00, -0.00, -1.00, 161.6, 587.0)">N</text><text xml:space="preserve" font-family="Monaco,Monaco" font-size="32.0" fill="#081E2B" transform="matrix(1.00, 0.00, -0.00, -1.00, 180.8, 587.0)">T</text><text xml:space="preserve" font-family="Monaco,Monaco" font-size="32.0" fill="#081E2B" transform="matrix(1.00, 0.00, -0.00, -1.00, 200.0, 587.0)">A</text><text xml:space="preserve" font-family="Monaco,Monaco" font-size="32.0" fill="#081E2B" transform="matrix(1.00, 0.00, -0.00, -1.00, 219.2, 587.0)">I</text><text xml:space="preserve" font-family="Monaco,Monaco" font-size="32.0" fill="#081E2B" transform="matrix(1.00, 0.00, -0.00, -1.00, 238.4, 587.0)">N</text><text xml:space="preserve" font-family="Monaco,Monaco" font-size="32.0" fill="#081E2B" transform="matrix(1.00, 0.00, -0.00, -1.00, 257.7, 587.0)">E</text><text xml:space="preserve" font-family="Monaco,Monaco" font-size="32.0" fill="#081E2B" transform="matrix(1.00, 0.00, -0.00, -1.00, 276.9, 587.0)">R</text><text xml:space="preserve" font-family="Monaco,Monaco" font-size="32.0" fill="#081E2B" transform="matrix(1.00, 0.00, -0.00, -1.00, 296.1, 587.0)"> </text><text xml:space="preserve" font-family="Monaco,Monaco" font-size="32.0" fill="#081E2B" transform="matrix(1.00, 0.00, -0.00, -1.00, 315.3, 587.0)">D</text><text xml:space="preserve" font-family="Monaco,Monaco" font-size="32.0" fill="#081E2B" transform="matrix(1.00, 0.00, -0.00, -1.00, 334.5, 587.0)">o</text><text xml:space="preserve" font-family="Monaco,Monaco" font-size="32.0" fill="#081E2B" transform="matrix(1.00, 0.00, -0.00, -1.00, 353.7, 587.0)">m</text><text xml:space="preserve" font-family="Monaco,Monaco" font-size="32.0" fill="#081E2B" transform="matrix(1.00, 0.00, -0.00, -1.00, 372.9, 587.0)"> </text><text xml:space="preserve" font-family="Monaco,Monaco" font-size="32.0" fill="#081E2B" transform="matrix(1.00, 0.00, -0.00, -1.00, 392.1, 587.0)">D</text><text xml:space="preserve" font-family="Monaco,Monaco" font-size="32.0" fill="#081E2B" transform="matrix(1.00, 0.00, -0.00, -1.00, 411.3, 587.0)">a</text><text xml:space="preserve" font-family="Monaco,Monaco" font-size="32.0" fill="#081E2B" transform="matrix(1.00, 0.00, -0.00, -1.00, 430.5, 587.0)">v</text><text xml:space="preserve" font-family="Monaco,Monaco" font-size="32.0" fill="#081E2B" transform="matrix(1.00, 0.00, -0.00, -1.00, 449.7, 587.0)">i</text><text xml:space="preserve" font-family="Monaco,Monaco" font-size="32.0" fill="#081E2B" transform="matrix(1.00, 0.00, -0.00, -1.00, 468.9, 587.0)">s</text><text xml:space="preserve" font-family="Monaco,Monaco" font-size="32.0" fill="#081E2B" transform="matrix(1.00, 0.00, -0.00, -1.00, 488.1, 587.0)"> </text><text xml:space="preserve" font-family="Monaco,Monaco" font-size="32.0" fill="#081E2B" transform="matrix(1.00, 0.00, -0.00, -1.00, 507.3, 587.0)">&lt;</text><text xml:space="preserve" font-family="Monaco,Monaco" font-size="32.0" fill="#081E2B" transform="matrix(1.00, 0.00, -0.00, -1.00, 526.5, 587.0)">d</text><text xml:space="preserve" font-family="Monaco,Monaco" font-size="32.0" fill="#081E2B" transform="matrix(1.00, 0.00, -0.00, -1.00, 545.7, 587.0)">o</text><text xml:space="preserve" font-family="Monaco,Monaco" font-size="32.0" fill="#081E2B" transform="matrix(1.00, 0.00, -0.00, -1.00, 565.0, 587.0)">m</text><text xml:space="preserve" font-family="Monaco,Monaco" font-size="32.0" fill="#081E2B" transform="matrix(1.00, 0.00, -0.00, -1.00, 584.2, 587.0)">@</text><text xml:space="preserve" font-family="Monaco,Monaco" font-size="32.0" fill="#081E2B" transform="matrix(1.00, 0.00, -0.00, -1.00, 603.4, 587.0)">r</text><text xml:space="preserve" font-family="Monaco,Monaco" font-size="32.0" fill="#081E2B" transform="matrix(1.00, 0.00, -0.00, -1.00, 622.6, 587.0)">a</text><text xml:space="preserve" font-family="Monaco,Monaco" font-size="32.0" fill="#081E2B" transform="matrix(1.00, 0.00, -0.00, -1.00, 641.8, 587.0)">i</text><text xml:space="preserve" font-family="Monaco,Monaco" font-size="32.0" fill="#081E2B" transform="matrix(1.00, 0.00, -0.00, -1.00, 661.0, 587.0)">n</text><text xml:space="preserve" font-family="Monaco,Monaco" font-size="32.0" fill="#081E2B" transform="matrix(1.00, 0.00, -0.00, -1.00, 680.2, 587.0)">b</text><text xml:space="preserve" font-family="Monaco,Monaco" font-size="32.0" fill="#081E2B" transform="matrix(1.00, 0.00, -0.00, -1.00, 699.4, 587.0)">i</text><text xml:space="preserve" font-family="Monaco,Monaco" font-size="32.0" fill="#081E2B" transform="matrix(1.00, 0.00, -0.00, -1.00, 718.6, 587.0)">r</text><text xml:space="preserve" font-family="Monaco,Monaco" font-size="32.0" fill="#081E2B" transform="matrix(1.00, 0.00, -0.00, -1.00, 737.8, 587.0)">d</text><text xml:space="preserve" font-family="Monaco,Monaco" font-size="32.0" fill="#081E2B" transform="matrix(1.00, 0.00, -0.00, -1.00, 757.0, 587.0)">.</text><text xml:space="preserve" font-family="Monaco,Monaco" font-size="32.0" fill="#081E2B" transform="matrix(1.00, 0.00, -0.00, -1.00, 776.2, 587.0)">a</text><text xml:space="preserve" font-family="Monaco,Monaco" font-size="32.0" fill="#081E2B" transform="matrix(1.00, 0.00, -0.00, -1.00, 795.4, 587.0)">i</text><text xml:space="preserve" font-family="Monaco,Monaco" font-size="32.0" fill="#081E2B" transform="matrix(1.00, 0.00, -0.00, -1.00, 814.6, 587.0)">&gt;</text><text xml:space="preserve" font-family="Monaco,Monaco" font-size="32.0" fill="#081E2B" transform="matrix(1.00, 0.00, -0.00, -1.00, 104.0, 501.0)">R</text><text xml:space="preserve" font-family="Monaco,Monaco" font-size="32.0" fill="#081E2B" transform="matrix(1.00, 0.00, -0.00, -1.00, 123.2, 501.0)">U</text><text xml:space="preserve" font-family="Monaco,Monaco" font-size="32.0" fill="#081E2B" transform="matrix(1.00, 0.00, -0.00, -1.00, 142.4, 501.0)">N</text><text xml:space="preserve" font-family="Monaco,Monaco" font-size="32.0" fill="#081E2B" transform="matrix(1.00, 0.00, -0.00, -1.00, 161.6, 501.0)"> </text><text xml:space="preserve" font-family="Monaco,Monaco" font-size="32.0" fill="#081E2B" transform="matrix(1.00, 0.00, -0.00, -1.00, 180.8, 501.0)">a</text><text xml:space="preserve" font-family="Monaco,Monaco" font-size="32.0" fill="#081E2B" transform="matrix(1.00, 0.00, -0.00, -1.00, 200.0, 501.0)">p</text><text xml:space="preserve" font-family="Monaco,Monaco" font-size="32.0" fill="#081E2B" transform="matrix(1.00, 0.00, -0.00, -1.00, 219.2, 501.0)">t</text><text xml:space="preserve" font-family="Monaco,Monaco" font-size="32.0" fill="#081E2B" transform="matrix(1.00, 0.00, -0.00, -1.00, 238.4, 501.0)">-</text><text xml:space="preserve" font-family="Monaco,Monaco" font-size="32.0" fill="#081E2B" transform="matrix(1.00, 0.00, -0.00, -1.00, 257.7, 501.0)">g</text><text xml:space="preserve" font-family="Monaco,Monaco" font-size="32.0" fill="#081E2B" transform="matrix(1.00, 0.00, -0.00, -1.00, 276.9, 501.0)">e</text><text xml:space="preserve" font-family="Monaco,Monaco" font-size="32.0" fill="#081E2B" transform="matrix(1.00, 0.00, -0.00, -1.00, 296.1, 501.0)">t</text><text xml:space="preserve" font-family="Monaco,Monaco" font-size="32.0" fill="#081E2B" transform="matrix(1.00, 0.00, -0.00, -1.00, 315.3, 501.0)"> </text><text xml:space="preserve" font-family="Monaco,Monaco" font-size="32.0" fill="#081E2B" transform="matrix(1.00, 0.00, -0.00, -1.00, 334.5, 501.0)">u</text><text xml:space="preserve" font-family="Monaco,Monaco" font-size="32.0" fill="#081E2B" transform="matrix(1.00, 0.00, -0.00, -1.00, 353.7, 501.0)">p</text><text xml:space="preserve" font-family="Monaco,Monaco" font-size="32.0" fill="#081E2B" transform="matrix(1.00, 0.00, -0.00, -1.00, 372.9, 501.0)">d</text><text xml:space="preserve" font-family="Monaco,Monaco" font-size="32.0" fill="#081E2B" transform="matrix(1.00, 0.00, -0.00, -1.00, 392.1, 501.0)">a</text><text xml:space="preserve" font-family="Monaco,Monaco" font-size="32.0" fill="#081E2B" transform="matrix(1.00, 0.00, -0.00, -1.00, 411.3, 501.0)">t</text><text xml:space="preserve" font-family="Monaco,Monaco" font-size="32.0" fill="#081E2B" transform="matrix(1.00, 0.00, -0.00, -1.00, 430.5, 501.0)">e</text><text xml:space="preserve" font-family="Monaco,Monaco" font-size="32.0" fill="#081E2B" transform="matrix(1.00, 0.00, -0.00, -1.00, 104.0, 458.0)">R</text><text xml:space="preserve" font-family="Monaco,Monaco" font-size="32.0" fill="#081E2B" transform="matrix(1.00, 0.00, -0.00, -1.00, 123.2, 458.0)">U</text><text xml:space="preserve" font-family="Monaco,Monaco" font-size="32.0" fill="#081E2B" transform="matrix(1.00, 0.00, -0.00, -1.00, 142.4, 458.0)">N</text><text xml:space="preserve" font-family="Monaco,Monaco" font-size="32.0" fill="#081E2B" transform="matrix(1.00, 0.00, -0.00, -1.00, 161.6, 458.0)"> </text><text xml:space="preserve" font-family="Monaco,Monaco" font-size="32.0" fill="#081E2B" transform="matrix(1.00, 0.00, -0.00, -1.00, 180.8, 458.0)">a</text><text xml:space="preserve" font-family="Monaco,Monaco" font-size="32.0" fill="#081E2B" transform="matrix(1.00, 0.00, -0.00, -1.00, 200.0, 458.0)">p</text><text xml:space="preserve" font-family="Monaco,Monaco" font-size="32.0" fill="#081E2B" transform="matrix(1.00, 0.00, -0.00, -1.00, 219.2, 458.0)">t</text><text xml:space="preserve" font-family="Monaco,Monaco" font-size="32.0" fill="#081E2B" transform="matrix(1.00, 0.00, -0.00, -1.00, 238.4, 458.0)">-</text><text xml:space="preserve" font-family="Monaco,Monaco" font-size="32.0" fill="#081E2B" transform="matrix(1.00, 0.00, -0.00, -1.00, 257.7, 458.0)">g</text><text xml:space="preserve" font-family="Monaco,Monaco" font-size="32.0" fill="#081E2B" transform="matrix(1.00, 0.00, -0.00, -1.00, 276.9, 458.0)">e</text><text xml:space="preserve" font-family="Monaco,Monaco" font-size="32.0" fill="#081E2B" transform="matrix(1.00, 0.00, -0.00, -1.00, 296.1, 458.0)">t</text><text xml:space="preserve" font-family="Monaco,Monaco" font-size="32.0" fill="#081E2B" transform="matrix(1.00, 0.00, -0.00, -1.00, 315.3, 458.0)"> </text><text xml:space="preserve" font-family="Monaco,Monaco" font-size="32.0" fill="#081E2B" transform="matrix(1.00, 0.00, -0.00, -1.00, 334.5, 458.0)">i</text><text xml:space="preserve" font-family="Monaco,Monaco" font-size="32.0" fill="#081E2B" transform="matrix(1.00, 0.00, -0.00, -1.00, 353.7, 458.0)">n</text><text xml:space="preserve" font-family="Monaco,Monaco" font-size="32.0" fill="#081E2B" transform="matrix(1.00, 0.00, -0.00, -1.00, 372.9, 458.0)">s</text><text xml:space="preserve" font-family="Monaco,Monaco" font-size="32.0" fill="#081E2B" transform="matrix(1.00, 0.00, -0.00, -1.00, 392.1, 458.0)">t</text><text xml:space="preserve" font-family="Monaco,Monaco" font-size="32.0" fill="#081E2B" transform="matrix(1.00, 0.00, -0.00, -1.00, 411.3, 458.0)">a</text><text xml:space="preserve" font-family="Monaco,Monaco" font-size="32.0" fill="#081E2B" transform="matrix(1.00, 0.00, -0.00, -1.00, 430.5, 458.0)">l</text><text xml:space="preserve" font-family="Monaco,Monaco" font-size="32.0" fill="#081E2B" transform="matrix(1.00, 0.00, -0.00, -1.00, 449.7, 458.0)">l</text><text xml:space="preserve" font-family="Monaco,Monaco" font-size="32.0" fill="#081E2B" transform="matrix(1.00, 0.00, -0.00, -1.00, 468.9, 458.0)"> </text><text xml:space="preserve" font-family="Monaco,Monaco" font-size="32.0" fill="#081E2B" transform="matrix(1.00, 0.00, -0.00, -1.00, 488.1, 458.0)">-</text><text xml:space="preserve" font-family="Monaco,Monaco" font-size="32.0" fill="#081E2B" transform="matrix(1.00, 0.00, -0.00, -1.00, 507.3, 458.0)">y</text><text xml:space="preserve" font-family="Monaco,Monaco" font-size="32.0" fill="#081E2B" transform="matrix(1.00, 0.00, -0.00, -1.00, 526.5, 458.0)"> </text><text xml:space="preserve" font-family="Monaco,Monaco" font-size="32.0" fill="#081E2B" transform="matrix(1.00, 0.00, -0.00, -1.00, 545.7, 458.0)">c</text><text xml:space="preserve" font-family="Monaco,Monaco" font-size="32.0" fill="#081E2B" transform="matrix(1.00, 0.00, -0.00, -1.00, 565.0, 458.0)">u</text><text xml:space="preserve" font-family="Monaco,Monaco" font-size="32.0" fill="#081E2B" transform="matrix(1.00, 0.00, -0.00, -1.00, 584.2, 458.0)">r</text><text xml:space="preserve" font-family="Monaco,Monaco" font-size="32.0" fill="#081E2B" transform="matrix(1.00, 0.00, -0.00, -1.00, 603.4, 458.0)">l</text><text xml:space="preserve" font-family="Monaco,Monaco" font-size="32.0" fill="#081E2B" transform="matrix(1.00, 0.00, -0.00, -1.00, 104.0, 372.0)">C</text><text xml:space="preserve" font-family="Monaco,Monaco" font-size="32.0" fill="#081E2B" transform="matrix(1.00, 0.00, -0.00, -1.00, 123.2, 372.0)">M</text><text xml:space="preserve" font-family="Monaco,Monaco" font-size="32.0" fill="#081E2B" transform="matrix(1.00, 0.00, -0.00, -1.00, 142.4, 372.0)">D</text><text xml:space="preserve" font-family="Monaco,Monaco" font-size="32.0" fill="#081E2B" transform="matrix(1.00, 0.00, -0.00, -1.00, 161.6, 372.0)"> </text><text xml:space="preserve" font-family="Monaco,Monaco" font-size="32.0" fill="#081E2B" transform="matrix(1.00, 0.00, -0.00, -1.00, 180.8, 372.0)">c</text><text xml:space="preserve" font-family="Monaco,Monaco" font-size="32.0" fill="#081E2B" transform="matrix(1.00, 0.00, -0.00, -1.00, 200.0, 372.0)">u</text><text xml:space="preserve" font-family="Monaco,Monaco" font-size="32.0" fill="#081E2B" transform="matrix(1.00, 0.00, -0.00, -1.00, 219.2, 372.0)">r</text><text xml:space="preserve" font-family="Monaco,Monaco" font-size="32.0" fill="#081E2B" transform="matrix(1.00, 0.00, -0.00, -1.00, 238.4, 372.0)">l</text><text xml:space="preserve" font-family="Monaco,Monaco" font-size="32.0" fill="#081E2B" transform="matrix(1.00, 0.00, -0.00, -1.00, 257.7, 372.0)"> </text><text xml:space="preserve" font-family="Monaco,Monaco" font-size="32.0" fill="#081E2B" transform="matrix(1.00, 0.00, -0.00, -1.00, 276.9, 372.0)">w</text><text xml:space="preserve" font-family="Monaco,Monaco" font-size="32.0" fill="#081E2B" transform="matrix(1.00, 0.00, -0.00, -1.00, 296.1, 372.0)">w</text><text xml:space="preserve" font-family="Monaco,Monaco" font-size="32.0" fill="#081E2B" transform="matrix(1.00, 0.00, -0.00, -1.00, 315.3, 372.0)">w</text><text xml:space="preserve" font-family="Monaco,Monaco" font-size="32.0" fill="#081E2B" transform="matrix(1.00, 0.00, -0.00, -1.00, 334.5, 372.0)">.</text><text xml:space="preserve" font-family="Monaco,Monaco" font-size="32.0" fill="#081E2B" transform="matrix(1.00, 0.00, -0.00, -1.00, 353.7, 372.0)">g</text><text xml:space="preserve" font-family="Monaco,Monaco" font-size="32.0" fill="#081E2B" transform="matrix(1.00, 0.00, -0.00, -1.00, 372.9, 372.0)">o</text><text xml:space="preserve" font-family="Monaco,Monaco" font-size="32.0" fill="#081E2B" transform="matrix(1.00, 0.00, -0.00, -1.00, 392.1, 372.0)">o</text><text xml:space="preserve" font-family="Monaco,Monaco" font-size="32.0" fill="#081E2B" transform="matrix(1.00, 0.00, -0.00, -1.00, 411.3, 372.0)">g</text><text xml:space="preserve" font-family="Monaco,Monaco" font-size="32.0" fill="#081E2B" transform="matrix(1.00, 0.00, -0.00, -1.00, 430.5, 372.0)">l</text><text xml:space="preserve" font-family="Monaco,Monaco" font-size="32.0" fill="#081E2B" transform="matrix(1.00, 0.00, -0.00, -1.00, 449.7, 372.0)">e</text><text xml:space="preserve" font-family="Monaco,Monaco" font-size="32.0" fill="#081E2B" transform="matrix(1.00, 0.00, -0.00, -1.00, 468.9, 372.0)">.</text><text xml:space="preserve" font-family="Monaco,Monaco" font-size="32.0" fill="#081E2B" transform="matrix(1.00, 0.00, -0.00, -1.00, 488.1, 372.0)">c</text><text xml:space="preserve" font-family="Monaco,Monaco" font-size="32.0" fill="#081E2B" transform="matrix(1.00, 0.00, -0.00, -1.00, 507.3, 372.0)">o</text><text xml:space="preserve" font-family="Monaco,Monaco" font-size="32.0" fill="#081E2B" transform="matrix(1.00, 0.00, -0.00, -1.00, 526.5, 372.0)">m</text></g></svg>